<svg xmlns="http://www.w3.org/2000/svg" xmlns:v="https://svgstorm.com"
viewBox = "0 0 512 512"
width="512"
height="512">
<g fill="None" fill-opacity="0.0" stroke="#37355E" stroke-opacity="1.00" stroke-width="0.3"><path d="
M 0.00 512.00 
L 512.00 512.00
L 512.00 0.00
L 0.00 0.00
L 0.00 512.00
M 176.00 152.00 
C 178.80 158.11 174.71 167.18 176.00 174.00 C 177.29 180.82 175.35 188.81 176.00 196.00 C 176.65 203.19 175.51 211.69 176.00 219.00
C 179.89 216.22 182.71 212.05 187.00 210.00
C 191.70 207.35 197.30 205.91 202.00 203.00
C 206.00 200.52 207.76 200.00 213.00 200.00
C 221.48 200.00 229.49 200.25 237.00 202.00
C 258.87 203.12 278.45 228.76 280.00 249.00
C 280.67 252.11 281.80 255.29 282.00 259.00
C 283.78 291.90 280.66 325.07 282.00 358.00
C 272.09 358.68 262.99 357.10 253.00 358.00 C 243.01 358.90 232.34 359.40 234.00 348.00 C 235.66 336.60 233.38 329.28 234.00 319.00 C 234.63 308.72 233.92 298.54 234.00 289.00 C 234.08 279.46 235.06 269.38 232.69 261.31 C 230.33 253.23 226.91 249.39 220.25 244.75 C 213.60 240.10 202.78 240.19 195.00 242.00
C 194.56 242.16 194.00 242.00 194.00 242.00
C 189.29 245.78 183.72 247.69 180.00 253.00
C 177.84 256.83 176.36 260.50 176.00 265.00
C 175.46 271.84 176.09 278.06 176.00 285.00 C 175.91 291.94 175.76 298.90 176.00 306.00 C 176.24 313.10 175.26 319.68 176.00 327.00 C 176.74 334.32 174.27 340.26 176.00 348.00 C 177.73 355.74 173.26 360.88 166.00 359.00 C 158.74 357.12 150.42 360.64 145.00 359.00 C 139.58 357.36 127.15 362.38 126.00 357.00
C 122.98 323.50 125.96 288.70 126.00 255.00 C 126.04 221.30 122.96 185.59 126.00 152.00
C 126.84 148.09 133.82 150.61 137.00 150.00 C 140.18 149.39 147.73 150.58 151.00 150.00 C 154.27 149.42 161.56 150.99 164.00 150.00 C 166.44 149.01 176.78 151.08 176.00 152.00
M 382.00 178.00 
C 381.97 180.00 382.03 182.00 382.00 184.00
C 381.85 194.98 379.42 203.99 379.01 215.01 C 378.59 226.03 376.43 234.55 376.02 246.02 C 375.62 257.50 376.34 268.80 362.00 267.00 C 347.66 265.20 342.06 266.74 328.00 267.00 C 313.94 267.26 318.00 253.37 318.00 242.00
C 318.00 222.72 316.00 203.38 316.00 184.00
C 315.51 178.96 315.00 172.73 315.00 167.00
C 314.44 161.21 310.96 149.28 320.00 150.00 C 329.04 150.72 335.57 149.72 344.00 150.00 C 352.43 150.28 359.89 149.99 368.00 150.00 C 376.11 150.01 385.32 147.73 385.00 157.00 C 384.68 166.28 382.91 169.97 382.00 178.00
M 357.00 292.00 
C 383.19 296.69 392.82 333.44 373.75 349.75 C 354.68 366.06 321.47 365.68 310.70 338.30 C 299.93 310.93 328.79 286.95 357.00 292.00 Z"/>
</g>
<g fill="None" fill-opacity="0.0" stroke="#48485C" stroke-opacity="1.00" stroke-width="0.3"><path d="
M 126.00 152.00 
C 126.00 151.96 127.00 152.00 127.00 152.00
C 131.84 148.42 143.51 151.26 150.00 151.00 C 156.49 150.74 167.47 149.61 174.00 151.00
C 174.11 151.02 176.01 152.03 176.00 152.00
C 176.78 151.08 166.44 149.01 164.00 150.00 C 161.56 150.99 154.27 149.42 151.00 150.00 C 147.73 150.58 140.18 149.39 137.00 150.00 C 133.82 150.61 126.84 148.09 126.00 152.00 Z"/>
</g>
<g fill="None" fill-opacity="0.0" stroke="#5F4469" stroke-opacity="1.00" stroke-width="0.3"><path d="
M 315.00 167.00 
C 315.00 164.67 315.00 162.33 315.00 160.00
C 315.00 158.21 314.29 154.61 315.00 153.00
C 317.01 148.42 331.35 151.41 337.00 151.00 C 342.65 150.59 355.34 150.41 361.00 151.00 C 366.66 151.59 381.96 148.25 384.00 153.00
C 384.84 154.96 383.12 159.74 383.00 162.00
C 382.70 167.53 382.07 172.51 382.00 178.00
C 382.91 169.97 384.68 166.28 385.00 157.00 C 385.32 147.73 376.11 150.01 368.00 150.00 C 359.89 149.99 352.43 150.28 344.00 150.00 C 335.57 149.72 329.04 150.72 320.00 150.00 C 310.96 149.28 314.44 161.21 315.00 167.00 Z"/>
</g>
<g fill="None" fill-opacity="0.0" stroke="#ABABB8" stroke-opacity="1.00" stroke-width="0.3"><path d="
M 127.00 152.00 
C 142.67 152.00 158.33 152.00 174.00 152.00
C 174.66 175.25 172.67 199.20 175.00 222.00
C 178.30 219.46 181.56 216.31 184.00 213.00
C 180.95 215.54 178.12 218.64 175.00 221.00
C 174.34 197.75 176.33 173.80 174.00 151.00
C 167.47 149.61 156.49 150.74 150.00 151.00 C 143.51 151.26 131.84 148.42 127.00 152.00 Z"/>
</g>
<g fill="None" fill-opacity="0.0" stroke="#676778" stroke-opacity="1.00" stroke-width="0.3"><path d="
M 184.00 213.00 
C 185.02 212.16 186.10 210.72 187.00 210.00
C 182.71 212.05 179.89 216.22 176.00 219.00
C 175.51 211.69 176.65 203.19 176.00 196.00 C 175.35 188.81 177.29 180.82 176.00 174.00 C 174.71 167.18 178.80 158.11 176.00 152.00
C 176.01 152.03 174.11 151.02 174.00 151.00
C 176.33 173.80 174.34 197.75 175.00 221.00
C 178.12 218.64 180.95 215.54 184.00 213.00 Z"/>
</g>
<g fill="None" fill-opacity="0.0" stroke="#A179A0" stroke-opacity="1.00" stroke-width="0.3"><path d="
M 315.00 153.00 
C 317.23 149.55 326.75 152.66 331.00 152.00 C 335.25 151.34 344.30 151.94 349.00 152.00 C 353.70 152.06 362.71 151.20 367.00 152.00 C 371.29 152.80 381.60 149.43 384.00 153.00
C 381.96 148.25 366.66 151.59 361.00 151.00 C 355.34 150.41 342.65 150.59 337.00 151.00 C 331.35 151.41 317.01 148.42 315.00 153.00 Z"/>
</g>
<g fill="None" fill-opacity="0.0" stroke="#7D7C8F" stroke-opacity="1.00" stroke-width="0.3"><path d="
M 126.00 357.00 
C 126.00 357.04 127.00 357.00 127.00 357.00
C 130.03 323.50 127.04 288.70 127.00 255.00 C 126.96 221.30 130.04 185.59 127.00 152.00
C 127.00 152.00 126.00 151.96 126.00 152.00
C 122.96 185.59 126.04 221.30 126.00 255.00 C 125.96 288.70 122.98 323.50 126.00 357.00 Z"/>
</g>
<g fill="None" fill-opacity="0.0" stroke="#E2E2ED" stroke-opacity="1.00" stroke-width="0.3"><path d="
M 127.00 357.00 
C 142.67 357.00 158.33 357.00 174.00 357.00
C 174.67 327.50 172.67 296.68 175.00 268.00
C 175.13 266.46 175.67 266.02 176.00 265.00
C 176.36 260.50 177.84 256.83 180.00 253.00
C 183.06 247.57 187.72 243.48 194.00 242.00
C 194.00 242.00 194.56 242.16 195.00 242.00
C 183.51 243.17 174.64 251.90 174.00 265.00 C 173.37 278.11 172.58 295.68 173.00 310.00 C 173.42 324.32 172.69 341.43 173.00 356.00
C 158.00 356.00 143.00 356.00 128.00 356.00
C 128.02 344.31 127.98 332.69 128.00 321.00 C 128.02 309.31 127.96 297.71 128.00 286.00 C 128.04 274.29 127.92 261.65 128.00 250.00 C 128.08 238.35 127.81 226.46 128.00 215.00 C 128.19 203.54 127.60 190.04 128.00 179.00 C 128.40 167.96 123.57 151.95 137.00 153.00 C 150.43 154.05 159.93 152.21 173.00 153.00
C 172.65 163.98 173.46 171.69 173.00 183.00 C 172.54 194.31 173.88 200.49 173.00 213.00 C 172.12 225.51 177.59 220.75 184.25 214.25 C 190.91 207.75 196.90 208.14 204.69 204.69 C 212.49 201.25 223.28 202.49 232.00 202.00
C 226.36 201.40 219.35 200.50 213.00 201.00
C 209.56 201.27 205.31 201.94 202.00 203.00
C 197.30 205.91 191.70 207.35 187.00 210.00
C 186.10 210.72 185.02 212.16 184.00 213.00
C 181.56 216.31 178.30 219.46 175.00 222.00
C 172.67 199.20 174.66 175.25 174.00 152.00
C 158.33 152.00 142.67 152.00 127.00 152.00
C 130.04 185.59 126.96 221.30 127.00 255.00 C 127.04 288.70 130.03 323.50 127.00 357.00 Z"/>
</g>
<g fill="None" fill-opacity="0.0" stroke="#FBB9DD" stroke-opacity="1.00" stroke-width="0.3"><path d="
M 315.00 153.00 
C 314.29 154.61 315.00 158.21 315.00 160.00
C 315.70 167.33 316.00 175.97 316.00 184.00
C 316.00 203.38 318.00 222.72 318.00 242.00
C 318.30 245.08 319.00 249.25 319.00 253.00
C 319.32 256.27 320.84 261.02 320.00 265.00
C 337.58 264.34 355.86 266.32 373.00 264.00
C 376.99 257.87 373.32 247.28 375.00 240.00 C 376.68 232.72 376.84 222.79 377.00 215.00
C 377.34 197.99 378.73 177.74 383.00 162.00
C 383.12 159.74 384.84 154.96 384.00 153.00
C 381.60 149.43 371.29 152.80 367.00 152.00 C 362.71 151.20 353.70 152.06 349.00 152.00 C 344.30 151.94 335.25 151.34 331.00 152.00 C 326.75 152.66 317.23 149.55 315.00 153.00 Z"/>
</g>
<g fill="None" fill-opacity="0.0" stroke="#FCFCFC" stroke-opacity="1.00" stroke-width="0.3"><path d="
M 195.00 242.00 
C 202.78 240.19 213.60 240.10 220.25 244.75 C 226.91 249.39 230.33 253.23 232.69 261.31 C 235.06 269.38 234.08 279.46 234.00 289.00 C 233.92 298.54 234.63 308.72 234.00 319.00 C 233.38 329.28 235.66 336.60 234.00 348.00 C 232.34 359.40 243.01 358.90 253.00 358.00 C 262.99 357.10 272.09 358.68 282.00 358.00
C 280.66 325.07 283.78 291.90 282.00 259.00
C 281.45 255.93 280.29 252.79 280.00 249.00
C 278.45 228.76 258.87 203.12 237.00 202.00
C 235.34 201.92 233.66 202.00 232.00 202.00
C 223.28 202.49 212.49 201.25 204.69 204.69 C 196.90 208.14 190.91 207.75 184.25 214.25 C 177.59 220.75 172.12 225.51 173.00 213.00 C 173.88 200.49 172.54 194.31 173.00 183.00 C 173.46 171.69 172.65 163.98 173.00 153.00
C 159.93 152.21 150.43 154.05 137.00 153.00 C 123.57 151.95 128.40 167.96 128.00 179.00 C 127.60 190.04 128.19 203.54 128.00 215.00 C 127.81 226.46 128.08 238.35 128.00 250.00 C 127.92 261.65 128.04 274.29 128.00 286.00 C 127.96 297.71 128.02 309.31 128.00 321.00 C 127.98 332.69 128.02 344.31 128.00 356.00
C 143.00 356.00 158.00 356.00 173.00 356.00
C 172.69 341.43 173.42 324.32 173.00 310.00 C 172.58 295.68 173.37 278.11 174.00 265.00 C 174.64 251.90 183.51 243.17 195.00 242.00 Z"/>
</g>
<g fill="None" fill-opacity="0.0" stroke="#A27CA1" stroke-opacity="1.00" stroke-width="0.3"><path d="
M 315.00 167.00 
C 315.00 172.73 315.51 178.96 316.00 184.00
C 316.00 175.97 315.70 167.33 315.00 160.00
C 315.00 162.33 315.00 164.67 315.00 167.00 Z"/>
</g>
<g fill="None" fill-opacity="0.0" stroke="#BD96BB" stroke-opacity="1.00" stroke-width="0.3"><path d="
M 377.00 215.00 
C 378.70 205.51 380.92 193.56 382.00 184.00
C 382.03 182.00 381.97 180.00 382.00 178.00
C 382.07 172.51 382.70 167.53 383.00 162.00
C 378.73 177.74 377.34 197.99 377.00 215.00 Z"/>
</g>
<g fill="None" fill-opacity="0.0" stroke="#6E5278" stroke-opacity="1.00" stroke-width="0.3"><path d="
M 377.00 215.00 
C 376.84 222.79 376.68 232.72 375.00 240.00 C 373.32 247.28 376.99 257.87 373.00 264.00
C 369.02 270.10 359.38 264.06 352.00 266.00 C 344.62 267.94 338.27 264.03 329.00 266.00 C 319.73 267.97 319.00 261.76 319.00 253.00
C 319.00 249.25 318.30 245.08 318.00 242.00
C 318.00 253.37 313.94 267.26 328.00 267.00 C 342.06 266.74 347.66 265.20 362.00 267.00 C 376.34 268.80 375.62 257.50 376.02 246.02 C 376.43 234.55 378.59 226.03 379.01 215.01 C 379.42 203.99 381.85 194.98 382.00 184.00
C 380.92 193.56 378.70 205.51 377.00 215.00 Z"/>
</g>
<g fill="None" fill-opacity="0.0" stroke="#54556B" stroke-opacity="1.00" stroke-width="0.3"><path d="
M 202.00 203.00 
C 205.31 201.94 209.56 201.27 213.00 201.00
C 213.13 200.96 213.00 200.00 213.00 200.00
C 207.76 200.00 206.00 200.52 202.00 203.00 Z"/>
</g>
<g fill="None" fill-opacity="0.0" stroke="#7D7D8C" stroke-opacity="1.00" stroke-width="0.3"><path d="
M 213.00 201.00 
C 219.35 200.50 226.36 201.40 232.00 202.00
C 233.66 202.00 235.34 201.92 237.00 202.00
C 229.49 200.25 221.48 200.00 213.00 200.00
C 213.00 200.00 213.13 200.96 213.00 201.00 Z"/>
</g>
<g fill="None" fill-opacity="0.0" stroke="#9292A3" stroke-opacity="1.00" stroke-width="0.3"><path d="
M 180.00 253.00 
C 183.72 247.69 189.29 245.78 194.00 242.00
C 187.72 243.48 183.06 247.57 180.00 253.00 Z"/>
</g>
<g fill="None" fill-opacity="0.0" stroke="#9C9DAA" stroke-opacity="1.00" stroke-width="0.3"><path d="
M 282.00 259.00 
C 281.80 255.29 280.67 252.11 280.00 249.00
C 280.29 252.79 281.45 255.93 282.00 259.00 Z"/>
</g>
<g fill="None" fill-opacity="0.0" stroke="#B186A9" stroke-opacity="1.00" stroke-width="0.3"><path d="
M 373.00 264.00 
C 355.86 266.32 337.58 264.34 320.00 265.00
C 320.84 261.02 319.32 256.27 319.00 253.00
C 319.00 261.76 319.73 267.97 329.00 266.00 C 338.27 264.03 344.62 267.94 352.00 266.00 C 359.38 264.06 369.02 270.10 373.00 264.00 Z"/>
</g>
<g fill="None" fill-opacity="0.0" stroke="#67657F" stroke-opacity="1.00" stroke-width="0.3"><path d="
M 175.00 268.00 
C 172.45 297.78 176.91 328.16 175.00 358.00
C 159.17 357.33 142.01 359.33 127.00 357.00
C 127.00 357.00 126.00 357.04 126.00 357.00
C 127.15 362.38 139.58 357.36 145.00 359.00 C 150.42 360.64 158.74 357.12 166.00 359.00 C 173.26 360.88 177.73 355.74 176.00 348.00 C 174.27 340.26 176.74 334.32 176.00 327.00 C 175.26 319.68 176.24 313.10 176.00 306.00 C 175.76 298.90 175.91 291.94 176.00 285.00 C 176.09 278.06 175.46 271.84 176.00 265.00
C 175.67 266.02 175.13 266.46 175.00 268.00 Z"/>
</g>
<g fill="None" fill-opacity="0.0" stroke="#B2B1C5" stroke-opacity="1.00" stroke-width="0.3"><path d="
M 127.00 357.00 
C 142.01 359.33 159.17 357.33 175.00 358.00
C 176.91 328.16 172.45 297.78 175.00 268.00
C 172.67 296.68 174.67 327.50 174.00 357.00
C 158.33 357.00 142.67 357.00 127.00 357.00 Z"/>
</g>
<g fill="None" fill-opacity="0.0" stroke="#F8B7DC" stroke-opacity="1.00" stroke-width="0.3"><path d="
M 357.00 292.00 
C 328.79 286.95 299.93 310.93 310.70 338.30 C 321.47 365.68 354.68 366.06 373.75 349.75 C 392.82 333.44 383.19 296.69 357.00 292.00 Z"/>
</g>
<g fill="#37355E" fill-opacity="1.00" stroke="None">
<path d="
M 0.00 512.00 
L 512.00 512.00
L 512.00 0.00
L 0.00 0.00
L 0.00 512.00
M 176.00 152.00 
C 178.80 158.11 174.71 167.18 176.00 174.00 C 177.29 180.82 175.35 188.81 176.00 196.00 C 176.65 203.19 175.51 211.69 176.00 219.00
C 179.89 216.22 182.71 212.05 187.00 210.00
C 191.70 207.35 197.30 205.91 202.00 203.00
C 206.00 200.52 207.76 200.00 213.00 200.00
C 221.48 200.00 229.49 200.25 237.00 202.00
C 258.87 203.12 278.45 228.76 280.00 249.00
C 280.67 252.11 281.80 255.29 282.00 259.00
C 283.78 291.90 280.66 325.07 282.00 358.00
C 272.09 358.68 262.99 357.10 253.00 358.00 C 243.01 358.90 232.34 359.40 234.00 348.00 C 235.66 336.60 233.38 329.28 234.00 319.00 C 234.63 308.72 233.92 298.54 234.00 289.00 C 234.08 279.46 235.06 269.38 232.69 261.31 C 230.33 253.23 226.91 249.39 220.25 244.75 C 213.60 240.10 202.78 240.19 195.00 242.00
C 194.56 242.16 194.00 242.00 194.00 242.00
C 189.29 245.78 183.72 247.69 180.00 253.00
C 177.84 256.83 176.36 260.50 176.00 265.00
C 175.46 271.84 176.09 278.06 176.00 285.00 C 175.91 291.94 175.76 298.90 176.00 306.00 C 176.24 313.10 175.26 319.68 176.00 327.00 C 176.74 334.32 174.27 340.26 176.00 348.00 C 177.73 355.74 173.26 360.88 166.00 359.00 C 158.74 357.12 150.42 360.64 145.00 359.00 C 139.58 357.36 127.15 362.38 126.00 357.00
C 122.98 323.50 125.96 288.70 126.00 255.00 C 126.04 221.30 122.96 185.59 126.00 152.00
C 126.84 148.09 133.82 150.61 137.00 150.00 C 140.18 149.39 147.73 150.58 151.00 150.00 C 154.27 149.42 161.56 150.99 164.00 150.00 C 166.44 149.01 176.78 151.08 176.00 152.00
M 382.00 178.00 
C 381.97 180.00 382.03 182.00 382.00 184.00
C 381.85 194.98 379.42 203.99 379.01 215.01 C 378.59 226.03 376.43 234.55 376.02 246.02 C 375.62 257.50 376.34 268.80 362.00 267.00 C 347.66 265.20 342.06 266.74 328.00 267.00 C 313.94 267.26 318.00 253.37 318.00 242.00
C 318.00 222.72 316.00 203.38 316.00 184.00
C 315.51 178.96 315.00 172.73 315.00 167.00
C 314.44 161.21 310.96 149.28 320.00 150.00 C 329.04 150.72 335.57 149.72 344.00 150.00 C 352.43 150.28 359.89 149.99 368.00 150.00 C 376.11 150.01 385.32 147.73 385.00 157.00 C 384.68 166.28 382.91 169.97 382.00 178.00
M 357.00 292.00 
C 383.19 296.69 392.82 333.44 373.75 349.75 C 354.68 366.06 321.47 365.68 310.70 338.30 C 299.93 310.93 328.79 286.95 357.00 292.00 Z"/>
</g>
<g fill="#48485C" fill-opacity="1.00" stroke="None">
<path d="
M 126.00 152.00 
C 126.00 151.96 127.00 152.00 127.00 152.00
C 131.84 148.42 143.51 151.26 150.00 151.00 C 156.49 150.74 167.47 149.61 174.00 151.00
C 174.11 151.02 176.01 152.03 176.00 152.00
C 176.78 151.08 166.44 149.01 164.00 150.00 C 161.56 150.99 154.27 149.42 151.00 150.00 C 147.73 150.58 140.18 149.39 137.00 150.00 C 133.82 150.61 126.84 148.09 126.00 152.00 Z"/>
</g>
<g fill="#5F4469" fill-opacity="1.00" stroke="None">
<path d="
M 315.00 167.00 
C 315.00 164.67 315.00 162.33 315.00 160.00
C 315.00 158.21 314.29 154.61 315.00 153.00
C 317.01 148.42 331.35 151.41 337.00 151.00 C 342.65 150.59 355.34 150.41 361.00 151.00 C 366.66 151.59 381.96 148.25 384.00 153.00
C 384.84 154.96 383.12 159.74 383.00 162.00
C 382.70 167.53 382.07 172.51 382.00 178.00
C 382.91 169.97 384.68 166.28 385.00 157.00 C 385.32 147.73 376.11 150.01 368.00 150.00 C 359.89 149.99 352.43 150.28 344.00 150.00 C 335.57 149.72 329.04 150.72 320.00 150.00 C 310.96 149.28 314.44 161.21 315.00 167.00 Z"/>
</g>
<g fill="#ABABB8" fill-opacity="1.00" stroke="None">
<path d="
M 127.00 152.00 
C 142.67 152.00 158.33 152.00 174.00 152.00
C 174.66 175.25 172.67 199.20 175.00 222.00
C 178.30 219.46 181.56 216.31 184.00 213.00
C 180.95 215.54 178.12 218.64 175.00 221.00
C 174.34 197.75 176.33 173.80 174.00 151.00
C 167.47 149.61 156.49 150.74 150.00 151.00 C 143.51 151.26 131.84 148.42 127.00 152.00 Z"/>
</g>
<g fill="#676778" fill-opacity="1.00" stroke="None">
<path d="
M 184.00 213.00 
C 185.02 212.16 186.10 210.72 187.00 210.00
C 182.71 212.05 179.89 216.22 176.00 219.00
C 175.51 211.69 176.65 203.19 176.00 196.00 C 175.35 188.81 177.29 180.82 176.00 174.00 C 174.71 167.18 178.80 158.11 176.00 152.00
C 176.01 152.03 174.11 151.02 174.00 151.00
C 176.33 173.80 174.34 197.75 175.00 221.00
C 178.12 218.64 180.95 215.54 184.00 213.00 Z"/>
</g>
<g fill="#A179A0" fill-opacity="1.00" stroke="None">
<path d="
M 315.00 153.00 
C 317.23 149.55 326.75 152.66 331.00 152.00 C 335.25 151.34 344.30 151.94 349.00 152.00 C 353.70 152.06 362.71 151.20 367.00 152.00 C 371.29 152.80 381.60 149.43 384.00 153.00
C 381.96 148.25 366.66 151.59 361.00 151.00 C 355.34 150.41 342.65 150.59 337.00 151.00 C 331.35 151.41 317.01 148.42 315.00 153.00 Z"/>
</g>
<g fill="#7D7C8F" fill-opacity="1.00" stroke="None">
<path d="
M 126.00 357.00 
C 126.00 357.04 127.00 357.00 127.00 357.00
C 130.03 323.50 127.04 288.70 127.00 255.00 C 126.96 221.30 130.04 185.59 127.00 152.00
C 127.00 152.00 126.00 151.96 126.00 152.00
C 122.96 185.59 126.04 221.30 126.00 255.00 C 125.96 288.70 122.98 323.50 126.00 357.00 Z"/>
</g>
<g fill="#E2E2ED" fill-opacity="1.00" stroke="None">
<path d="
M 127.00 357.00 
C 142.67 357.00 158.33 357.00 174.00 357.00
C 174.67 327.50 172.67 296.68 175.00 268.00
C 175.13 266.46 175.67 266.02 176.00 265.00
C 176.36 260.50 177.84 256.83 180.00 253.00
C 183.06 247.57 187.72 243.48 194.00 242.00
C 194.00 242.00 194.56 242.16 195.00 242.00
C 183.51 243.17 174.64 251.90 174.00 265.00 C 173.37 278.11 172.58 295.68 173.00 310.00 C 173.42 324.32 172.69 341.43 173.00 356.00
C 158.00 356.00 143.00 356.00 128.00 356.00
C 128.02 344.31 127.98 332.69 128.00 321.00 C 128.02 309.31 127.96 297.71 128.00 286.00 C 128.04 274.29 127.92 261.65 128.00 250.00 C 128.08 238.35 127.81 226.46 128.00 215.00 C 128.19 203.54 127.60 190.04 128.00 179.00 C 128.40 167.96 123.57 151.95 137.00 153.00 C 150.43 154.05 159.93 152.21 173.00 153.00
C 172.65 163.98 173.46 171.69 173.00 183.00 C 172.54 194.31 173.88 200.49 173.00 213.00 C 172.12 225.51 177.59 220.75 184.25 214.25 C 190.91 207.75 196.90 208.14 204.69 204.69 C 212.49 201.25 223.28 202.49 232.00 202.00
C 226.36 201.40 219.35 200.50 213.00 201.00
C 209.56 201.27 205.31 201.94 202.00 203.00
C 197.30 205.91 191.70 207.35 187.00 210.00
C 186.10 210.72 185.02 212.16 184.00 213.00
C 181.56 216.31 178.30 219.46 175.00 222.00
C 172.67 199.20 174.66 175.25 174.00 152.00
C 158.33 152.00 142.67 152.00 127.00 152.00
C 130.04 185.59 126.96 221.30 127.00 255.00 C 127.04 288.70 130.03 323.50 127.00 357.00 Z"/>
</g>
<g fill="#FBB9DD" fill-opacity="1.00" stroke="None">
<path d="
M 315.00 153.00 
C 314.29 154.61 315.00 158.21 315.00 160.00
C 315.70 167.33 316.00 175.97 316.00 184.00
C 316.00 203.38 318.00 222.72 318.00 242.00
C 318.30 245.08 319.00 249.25 319.00 253.00
C 319.32 256.27 320.84 261.02 320.00 265.00
C 337.58 264.34 355.86 266.32 373.00 264.00
C 376.99 257.87 373.32 247.28 375.00 240.00 C 376.68 232.72 376.84 222.79 377.00 215.00
C 377.34 197.99 378.73 177.74 383.00 162.00
C 383.12 159.74 384.84 154.96 384.00 153.00
C 381.60 149.43 371.29 152.80 367.00 152.00 C 362.71 151.20 353.70 152.06 349.00 152.00 C 344.30 151.94 335.25 151.34 331.00 152.00 C 326.75 152.66 317.23 149.55 315.00 153.00 Z"/>
</g>
<g fill="#FCFCFC" fill-opacity="1.00" stroke="None">
<path d="
M 195.00 242.00 
C 202.78 240.19 213.60 240.10 220.25 244.75 C 226.91 249.39 230.33 253.23 232.69 261.31 C 235.06 269.38 234.08 279.46 234.00 289.00 C 233.92 298.54 234.63 308.72 234.00 319.00 C 233.38 329.28 235.66 336.60 234.00 348.00 C 232.34 359.40 243.01 358.90 253.00 358.00 C 262.99 357.10 272.09 358.68 282.00 358.00
C 280.66 325.07 283.78 291.90 282.00 259.00
C 281.45 255.93 280.29 252.79 280.00 249.00
C 278.45 228.76 258.87 203.12 237.00 202.00
C 235.34 201.92 233.66 202.00 232.00 202.00
C 223.28 202.49 212.49 201.25 204.69 204.69 C 196.90 208.14 190.91 207.75 184.25 214.25 C 177.59 220.75 172.12 225.51 173.00 213.00 C 173.88 200.49 172.54 194.31 173.00 183.00 C 173.46 171.69 172.65 163.98 173.00 153.00
C 159.93 152.21 150.43 154.05 137.00 153.00 C 123.57 151.95 128.40 167.96 128.00 179.00 C 127.60 190.04 128.19 203.54 128.00 215.00 C 127.81 226.46 128.08 238.35 128.00 250.00 C 127.92 261.65 128.04 274.29 128.00 286.00 C 127.96 297.71 128.02 309.31 128.00 321.00 C 127.98 332.69 128.02 344.31 128.00 356.00
C 143.00 356.00 158.00 356.00 173.00 356.00
C 172.69 341.43 173.42 324.32 173.00 310.00 C 172.58 295.68 173.37 278.11 174.00 265.00 C 174.64 251.90 183.51 243.17 195.00 242.00 Z"/>
</g>
<g fill="#A27CA1" fill-opacity="1.00" stroke="None">
<path d="
M 315.00 167.00 
C 315.00 172.73 315.51 178.96 316.00 184.00
C 316.00 175.97 315.70 167.33 315.00 160.00
C 315.00 162.33 315.00 164.67 315.00 167.00 Z"/>
</g>
<g fill="#BD96BB" fill-opacity="1.00" stroke="None">
<path d="
M 377.00 215.00 
C 378.70 205.51 380.92 193.56 382.00 184.00
C 382.03 182.00 381.97 180.00 382.00 178.00
C 382.07 172.51 382.70 167.53 383.00 162.00
C 378.73 177.74 377.34 197.99 377.00 215.00 Z"/>
</g>
<g fill="#6E5278" fill-opacity="1.00" stroke="None">
<path d="
M 377.00 215.00 
C 376.84 222.79 376.68 232.72 375.00 240.00 C 373.32 247.28 376.99 257.87 373.00 264.00
C 369.02 270.10 359.38 264.06 352.00 266.00 C 344.62 267.94 338.27 264.03 329.00 266.00 C 319.73 267.97 319.00 261.76 319.00 253.00
C 319.00 249.25 318.30 245.08 318.00 242.00
C 318.00 253.37 313.94 267.26 328.00 267.00 C 342.06 266.74 347.66 265.20 362.00 267.00 C 376.34 268.80 375.62 257.50 376.02 246.02 C 376.43 234.55 378.59 226.03 379.01 215.01 C 379.42 203.99 381.85 194.98 382.00 184.00
C 380.92 193.56 378.70 205.51 377.00 215.00 Z"/>
</g>
<g fill="#54556B" fill-opacity="1.00" stroke="None">
<path d="
M 202.00 203.00 
C 205.31 201.94 209.56 201.27 213.00 201.00
C 213.13 200.96 213.00 200.00 213.00 200.00
C 207.76 200.00 206.00 200.52 202.00 203.00 Z"/>
</g>
<g fill="#7D7D8C" fill-opacity="1.00" stroke="None">
<path d="
M 213.00 201.00 
C 219.35 200.50 226.36 201.40 232.00 202.00
C 233.66 202.00 235.34 201.92 237.00 202.00
C 229.49 200.25 221.48 200.00 213.00 200.00
C 213.00 200.00 213.13 200.96 213.00 201.00 Z"/>
</g>
<g fill="#9292A3" fill-opacity="1.00" stroke="None">
<path d="
M 180.00 253.00 
C 183.72 247.69 189.29 245.78 194.00 242.00
C 187.72 243.48 183.06 247.57 180.00 253.00 Z"/>
</g>
<g fill="#9C9DAA" fill-opacity="1.00" stroke="None">
<path d="
M 282.00 259.00 
C 281.80 255.29 280.67 252.11 280.00 249.00
C 280.29 252.79 281.45 255.93 282.00 259.00 Z"/>
</g>
<g fill="#B186A9" fill-opacity="1.00" stroke="None">
<path d="
M 373.00 264.00 
C 355.86 266.32 337.58 264.34 320.00 265.00
C 320.84 261.02 319.32 256.27 319.00 253.00
C 319.00 261.76 319.73 267.97 329.00 266.00 C 338.27 264.03 344.62 267.94 352.00 266.00 C 359.38 264.06 369.02 270.10 373.00 264.00 Z"/>
</g>
<g fill="#67657F" fill-opacity="1.00" stroke="None">
<path d="
M 175.00 268.00 
C 172.45 297.78 176.91 328.16 175.00 358.00
C 159.17 357.33 142.01 359.33 127.00 357.00
C 127.00 357.00 126.00 357.04 126.00 357.00
C 127.15 362.38 139.58 357.36 145.00 359.00 C 150.42 360.64 158.74 357.12 166.00 359.00 C 173.26 360.88 177.73 355.74 176.00 348.00 C 174.27 340.26 176.74 334.32 176.00 327.00 C 175.26 319.68 176.24 313.10 176.00 306.00 C 175.76 298.90 175.91 291.94 176.00 285.00 C 176.09 278.06 175.46 271.84 176.00 265.00
C 175.67 266.02 175.13 266.46 175.00 268.00 Z"/>
</g>
<g fill="#B2B1C5" fill-opacity="1.00" stroke="None">
<path d="
M 127.00 357.00 
C 142.01 359.33 159.17 357.33 175.00 358.00
C 176.91 328.16 172.45 297.78 175.00 268.00
C 172.67 296.68 174.67 327.50 174.00 357.00
C 158.33 357.00 142.67 357.00 127.00 357.00 Z"/>
</g>
<g fill="#F8B7DC" fill-opacity="1.00" stroke="None">
<path d="
M 357.00 292.00 
C 328.79 286.95 299.93 310.93 310.70 338.30 C 321.47 365.68 354.68 366.06 373.75 349.75 C 392.82 333.44 383.19 296.69 357.00 292.00 Z"/>
</g>
</svg>