<svg xmlns="http://www.w3.org/2000/svg" xmlns:v="https://svgstorm.com"
viewBox = "0 0 144 89"
width="144"
height="89">
<g fill="None" fill-opacity="0.0" stroke="#F6F8FC" stroke-opacity="1.00" stroke-width="0.3"><path d="
M 0.00 89.00 
L 144.00 89.00
L 144.00 0.00
L 0.00 0.00
L 0.00 89.00
M 32.00 38.00 
C 29.97 35.38 29.61 31.21 27.00 29.00
C 27.23 30.31 26.13 39.92 25.00 41.00
C 23.44 41.50 20.90 41.22 20.00 40.00
C 16.50 35.25 22.63 23.40 20.00 18.00
C 27.72 16.27 30.52 25.59 33.00 31.00
C 35.21 27.58 33.42 22.18 34.00 18.00
C 37.30 13.15 41.63 20.87 40.00 25.00 C 38.37 29.13 41.23 36.57 40.00 41.00
C 37.03 41.19 33.15 41.43 32.00 38.00
M 47.00 18.00 
C 56.80 23.75 53.64 40.97 42.00 41.00
C 46.78 33.22 49.61 26.35 42.00 19.00
C 41.84 16.40 44.13 16.32 47.00 18.00
M 62.00 20.00 
C 60.66 23.22 58.62 25.96 57.00 29.00
C 57.45 29.22 57.80 30.61 58.00 31.00
C 59.23 33.41 60.83 35.61 62.00 38.00
C 62.42 38.87 64.91 39.24 64.00 41.00
C 62.12 40.53 59.07 42.06 58.00 40.00
C 54.71 38.29 53.34 34.19 55.00 31.00
C 55.10 30.81 55.94 29.03 56.00 29.00
C 53.11 25.73 54.37 20.13 58.00 18.00
C 59.66 17.02 61.72 16.70 64.00 17.00
C 64.27 18.28 63.23 19.72 62.00 20.00
M 72.00 40.00 
C 69.36 36.17 74.67 26.81 72.00 23.00
C 70.03 22.37 66.08 24.28 65.00 22.00
C 64.77 21.51 64.77 18.49 65.00 18.00
C 66.95 13.91 81.35 18.99 85.00 17.00
C 86.57 22.02 82.32 24.05 78.00 23.00
C 78.00 29.00 78.00 35.00 78.00 41.00
C 76.12 40.53 73.07 42.06 72.00 40.00
M 50.00 45.00 
C 50.66 47.36 51.58 50.21 53.00 52.00
C 46.61 55.79 49.18 60.63 45.68 67.68 C 42.17 74.72 35.61 66.19 36.00 60.00
C 31.65 60.11 32.72 73.00 26.99 70.99 C 21.26 68.98 23.58 60.67 20.00 57.00
C 24.50 55.63 26.79 59.12 27.00 63.00
C 32.95 64.61 29.83 52.94 35.08 53.08 C 40.33 53.22 36.60 64.85 43.00 63.00
C 43.34 58.28 46.37 53.71 44.00 49.00
C 46.75 49.27 47.68 45.71 50.00 45.00
M 65.00 68.00 
C 62.20 67.16 58.50 68.12 56.00 69.00
C 54.95 69.55 52.99 72.67 50.00 71.00
C 51.23 64.15 55.13 62.69 56.31 55.31 C 57.48 47.93 64.02 46.45 65.77 54.23 C 67.53 62.00 70.88 63.58 72.00 71.00
C 68.85 71.73 66.43 70.43 65.00 68.00
M 81.00 62.00 
C 83.64 57.10 82.90 46.45 91.00 48.00
C 90.06 56.19 84.28 62.90 83.00 71.00
C 73.80 70.15 73.16 55.51 70.00 48.00
C 78.37 46.42 76.17 58.27 81.00 62.00
M 113.00 51.00 
C 114.99 54.62 114.84 64.43 113.00 68.00
C 111.19 71.49 98.10 73.21 95.26 69.74 C 92.42 66.28 92.45 53.57 94.78 49.78 C 97.11 45.98 110.84 47.09 113.00 51.00
M 133.00 65.00 
C 133.58 67.32 132.26 73.69 132.00 68.00
C 129.21 72.47 127.64 67.74 126.00 72.00
C 124.45 69.69 124.62 66.32 126.00 64.00
C 128.88 68.35 128.90 67.35 133.00 65.00
M 124.00 65.00 
C 121.08 65.83 123.06 69.63 121.00 71.00
C 121.65 66.51 117.10 64.08 124.00 65.00 Z"/>
</g>
<g fill="None" fill-opacity="0.0" stroke="#7FB2DD" stroke-opacity="1.00" stroke-width="0.3"><path d="
M 34.00 18.00 
C 35.67 18.00 37.33 18.00 39.00 18.00
C 39.00 25.33 39.00 32.67 39.00 40.00
C 36.27 40.49 33.98 39.70 32.00 38.00
C 33.15 41.43 37.03 41.19 40.00 41.00
C 41.23 36.57 38.37 29.13 40.00 25.00 C 41.63 20.87 37.30 13.15 34.00 18.00 Z"/>
</g>
<g fill="None" fill-opacity="0.0" stroke="#7C92A4" stroke-opacity="1.00" stroke-width="0.3"><path d="
M 42.00 19.00 
C 42.75 17.82 45.61 17.57 47.00 18.00
C 44.13 16.32 41.84 16.40 42.00 19.00 Z"/>
</g>
<g fill="None" fill-opacity="0.0" stroke="#74ADDB" stroke-opacity="1.00" stroke-width="0.3"><path d="
M 58.00 18.00 
C 61.13 16.81 62.04 17.99 62.00 20.00
C 63.23 19.72 64.27 18.28 64.00 17.00
C 61.72 16.70 59.66 17.02 58.00 18.00 Z"/>
</g>
<g fill="None" fill-opacity="0.0" stroke="#91BFE5" stroke-opacity="1.00" stroke-width="0.3"><path d="
M 65.00 18.00 
C 71.33 18.00 77.67 18.00 84.00 18.00
C 85.58 23.01 80.14 22.02 77.00 22.00
C 77.00 28.00 77.00 34.00 77.00 40.00
C 75.33 40.00 73.67 40.00 72.00 40.00
C 73.07 42.06 76.12 40.53 78.00 41.00
C 78.00 35.00 78.00 29.00 78.00 23.00
C 82.32 24.05 86.57 22.02 85.00 17.00
C 81.35 18.99 66.95 13.91 65.00 18.00 Z"/>
</g>
<g fill="None" fill-opacity="0.0" stroke="#0C6FC3" stroke-opacity="1.00" stroke-width="0.3"><path d="
M 20.00 40.00 
C 21.53 40.39 23.51 39.49 25.00 40.00
C 25.00 35.67 25.00 31.33 25.00 27.00
C 25.83 27.41 26.87 27.97 27.00 29.00
C 29.61 31.21 29.97 35.38 32.00 38.00
C 33.98 39.70 36.27 40.49 39.00 40.00
C 39.00 32.67 39.00 25.33 39.00 18.00
C 37.33 18.00 35.67 18.00 34.00 18.00
C 33.42 22.18 35.21 27.58 33.00 31.00
C 30.52 25.59 27.72 16.27 20.00 18.00
C 22.63 23.40 16.50 35.25 20.00 40.00 Z"/>
</g>
<g fill="None" fill-opacity="0.0" stroke="#103656" stroke-opacity="1.00" stroke-width="0.3"><path d="
M 42.00 19.00 
C 49.61 26.35 46.78 33.22 42.00 41.00
C 53.64 40.97 56.80 23.75 47.00 18.00
C 45.61 17.57 42.75 17.82 42.00 19.00 Z"/>
</g>
<g fill="None" fill-opacity="0.0" stroke="#196AB2" stroke-opacity="1.00" stroke-width="0.3"><path d="
M 56.00 29.00 
C 56.40 28.80 57.00 29.00 57.00 29.00
C 58.62 25.96 60.66 23.22 62.00 20.00
C 62.04 17.99 61.13 16.81 58.00 18.00
C 54.37 20.13 53.11 25.73 56.00 29.00 Z"/>
</g>
<g fill="None" fill-opacity="0.0" stroke="#056FC5" stroke-opacity="1.00" stroke-width="0.3"><path d="
M 65.00 22.00 
C 67.25 22.48 70.54 20.92 72.00 23.00
C 74.67 26.81 69.36 36.17 72.00 40.00
C 73.67 40.00 75.33 40.00 77.00 40.00
C 77.00 34.00 77.00 28.00 77.00 22.00
C 80.14 22.02 85.58 23.01 84.00 18.00
C 77.67 18.00 71.33 18.00 65.00 18.00
C 64.77 18.49 64.77 21.51 65.00 22.00 Z"/>
</g>
<g fill="None" fill-opacity="0.0" stroke="#AED0ED" stroke-opacity="1.00" stroke-width="0.3"><path d="
M 72.00 23.00 
C 70.54 20.92 67.25 22.48 65.00 22.00
C 66.08 24.28 70.03 22.37 72.00 23.00 Z"/>
</g>
<g fill="None" fill-opacity="0.0" stroke="#AFCFEB" stroke-opacity="1.00" stroke-width="0.3"><path d="
M 25.00 40.00 
C 25.00 40.50 25.00 41.00 25.00 41.00
C 26.13 39.92 27.23 30.31 27.00 29.00
C 26.87 27.97 25.83 27.41 25.00 27.00
C 25.00 31.33 25.00 35.67 25.00 40.00 Z"/>
</g>
<g fill="None" fill-opacity="0.0" stroke="#A0BED8" stroke-opacity="1.00" stroke-width="0.3"><path d="
M 55.00 31.00 
C 54.80 29.91 58.08 30.54 58.00 31.00
C 57.80 30.61 57.45 29.22 57.00 29.00
C 57.00 29.00 56.40 28.80 56.00 29.00
C 55.94 29.03 55.10 30.81 55.00 31.00 Z"/>
</g>
<g fill="None" fill-opacity="0.0" stroke="#1467B0" stroke-opacity="1.00" stroke-width="0.3"><path d="
M 55.00 31.00 
C 53.34 34.19 54.71 38.29 58.00 40.00
C 61.07 40.97 62.17 40.20 62.00 38.00
C 60.83 35.61 59.23 33.41 58.00 31.00
C 58.08 30.54 54.80 29.91 55.00 31.00 Z"/>
</g>
<g fill="None" fill-opacity="0.0" stroke="#5DA0D6" stroke-opacity="1.00" stroke-width="0.3"><path d="
M 58.00 40.00 
C 59.07 42.06 62.12 40.53 64.00 41.00
C 64.91 39.24 62.42 38.87 62.00 38.00
C 62.17 40.20 61.07 40.97 58.00 40.00 Z"/>
</g>
<g fill="None" fill-opacity="0.0" stroke="#4E9AD7" stroke-opacity="1.00" stroke-width="0.3"><path d="
M 25.00 41.00 
C 25.00 41.00 25.00 40.50 25.00 40.00
C 23.51 39.49 21.53 40.39 20.00 40.00
C 20.90 41.22 23.44 41.50 25.00 41.00 Z"/>
</g>
<g fill="None" fill-opacity="0.0" stroke="#0C3352" stroke-opacity="1.00" stroke-width="0.3"><path d="
M 50.00 45.00 
C 47.68 45.71 46.75 49.27 44.00 49.00
C 46.37 53.71 43.34 58.28 43.00 63.00
C 36.60 64.85 40.33 53.22 35.08 53.08 C 29.83 52.94 32.95 64.61 27.00 63.00
C 26.79 59.12 24.50 55.63 20.00 57.00
C 23.58 60.67 21.26 68.98 26.99 70.99 C 32.72 73.00 31.65 60.11 36.00 60.00
C 35.61 66.19 42.17 74.72 45.68 67.68 C 49.18 60.63 46.61 55.79 53.00 52.00
C 51.58 50.21 50.66 47.36 50.00 45.00 Z"/>
</g>
<g fill="None" fill-opacity="0.0" stroke="#0C3352" stroke-opacity="1.00" stroke-width="0.3"><path d="
M 56.00 69.00 
C 59.26 67.30 61.19 66.22 65.00 68.00
C 66.43 70.43 68.85 71.73 72.00 71.00
C 70.88 63.58 67.53 62.00 65.77 54.23 C 64.02 46.45 57.48 47.93 56.31 55.31 C 55.13 62.69 51.23 64.15 50.00 71.00
C 52.99 72.67 54.95 69.55 56.00 69.00
M 63.00 63.00 
C 57.88 64.46 58.98 59.53 61.00 57.00
C 62.80 58.25 63.21 60.80 63.00 63.00 Z"/>
</g>
<g fill="None" fill-opacity="0.0" stroke="#0E3352" stroke-opacity="1.00" stroke-width="0.3"><path d="
M 81.00 62.00 
C 76.17 58.27 78.37 46.42 70.00 48.00
C 73.16 55.51 73.80 70.15 83.00 71.00
C 84.28 62.90 90.06 56.19 91.00 48.00
C 82.90 46.45 83.64 57.10 81.00 62.00 Z"/>
</g>
<g fill="None" fill-opacity="0.0" stroke="#093252" stroke-opacity="1.00" stroke-width="0.3"><path d="
M 113.00 68.00 
C 114.03 64.94 114.10 54.03 113.00 51.00
C 110.84 47.09 97.11 45.98 94.78 49.78 C 92.45 53.57 92.42 66.28 95.26 69.74 C 98.10 73.21 111.19 71.49 113.00 68.00
M 109.00 55.00 
C 107.32 56.75 104.37 55.73 102.00 56.00
C 100.55 59.45 107.77 56.69 108.00 59.00
C 108.52 62.85 102.94 59.39 102.00 62.00
C 101.86 65.47 106.85 63.44 109.00 64.00
C 109.00 65.00 109.00 66.00 109.00 67.00
C 108.22 68.60 97.84 69.38 98.08 65.92 C 98.33 62.45 96.46 54.44 99.00 52.00
C 102.31 51.70 105.69 52.22 109.00 52.00
C 109.00 53.00 109.00 54.00 109.00 55.00 Z"/>
</g>
<g fill="None" fill-opacity="0.0" stroke="#869AAA" stroke-opacity="1.00" stroke-width="0.3"><path d="
M 113.00 68.00 
C 114.84 64.43 114.99 54.62 113.00 51.00
C 114.10 54.03 114.03 64.94 113.00 68.00 Z"/>
</g>
<g fill="None" fill-opacity="0.0" stroke="#688196" stroke-opacity="1.00" stroke-width="0.3"><path d="
M 109.00 67.00 
C 105.67 67.00 102.33 67.00 99.00 67.00
C 99.00 62.33 99.00 57.67 99.00 53.00
C 99.00 52.50 99.00 52.00 99.00 52.00
C 96.46 54.44 98.33 62.45 98.08 65.92 C 97.84 69.38 108.22 68.60 109.00 67.00 Z"/>
</g>
<g fill="None" fill-opacity="0.0" stroke="#ABB9C5" stroke-opacity="1.00" stroke-width="0.3"><path d="
M 99.00 53.00 
C 102.16 53.29 107.06 51.49 108.00 55.00
C 108.49 55.05 109.00 55.00 109.00 55.00
C 109.00 54.00 109.00 53.00 109.00 52.00
C 105.69 52.22 102.31 51.70 99.00 52.00
C 99.00 52.00 99.00 52.50 99.00 53.00 Z"/>
</g>
<g fill="None" fill-opacity="0.0" stroke="#EEF1F5" stroke-opacity="1.00" stroke-width="0.3"><path d="
M 109.00 67.00 
C 109.00 66.00 109.00 65.00 109.00 64.00
C 106.85 63.44 101.86 65.47 102.00 62.00
C 102.94 59.39 108.52 62.85 108.00 59.00
C 107.77 56.69 100.55 59.45 102.00 56.00
C 102.66 54.44 106.53 54.84 108.00 55.00
C 107.06 51.49 102.16 53.29 99.00 53.00
C 99.00 57.67 99.00 62.33 99.00 67.00
C 102.33 67.00 105.67 67.00 109.00 67.00 Z"/>
</g>
<g fill="None" fill-opacity="0.0" stroke="#667F94" stroke-opacity="1.00" stroke-width="0.3"><path d="
M 102.00 56.00 
C 104.37 55.73 107.32 56.75 109.00 55.00
C 109.00 55.00 108.49 55.05 108.00 55.00
C 106.53 54.84 102.66 54.44 102.00 56.00 Z"/>
</g>
<g fill="None" fill-opacity="0.0" stroke="#CDD6DE" stroke-opacity="1.00" stroke-width="0.3"><path d="
M 63.00 63.00 
C 63.21 60.80 62.80 58.25 61.00 57.00
C 58.98 59.53 57.88 64.46 63.00 63.00 Z"/>
</g>
<g fill="None" fill-opacity="0.0" stroke="#345370" stroke-opacity="1.00" stroke-width="0.3"><path d="
M 133.00 65.00 
C 128.90 67.35 128.88 68.35 126.00 64.00
C 124.62 66.32 124.45 69.69 126.00 72.00
C 127.64 67.74 129.21 72.47 132.00 68.00
C 132.26 73.69 133.58 67.32 133.00 65.00 Z"/>
</g>
<g fill="None" fill-opacity="0.0" stroke="#173B5B" stroke-opacity="1.00" stroke-width="0.3"><path d="
M 124.00 65.00 
C 117.10 64.08 121.65 66.51 121.00 71.00
C 123.06 69.63 121.08 65.83 124.00 65.00 Z"/>
</g>
<g fill="None" fill-opacity="0.0" stroke="#7F91A1" stroke-opacity="1.00" stroke-width="0.3"><path d="
M 56.00 69.00 
C 58.50 68.12 62.20 67.16 65.00 68.00
C 61.19 66.22 59.26 67.30 56.00 69.00 Z"/>
</g>
<g fill="#F6F8FC" fill-opacity="1.00" stroke="None">
<path d="
M 0.00 89.00 
L 144.00 89.00
L 144.00 0.00
L 0.00 0.00
L 0.00 89.00
M 32.00 38.00 
C 29.97 35.38 29.61 31.21 27.00 29.00
C 27.23 30.31 26.13 39.92 25.00 41.00
C 23.44 41.50 20.90 41.22 20.00 40.00
C 16.50 35.25 22.63 23.40 20.00 18.00
C 27.72 16.27 30.52 25.59 33.00 31.00
C 35.21 27.58 33.42 22.18 34.00 18.00
C 37.30 13.15 41.63 20.87 40.00 25.00 C 38.37 29.13 41.23 36.57 40.00 41.00
C 37.03 41.19 33.15 41.43 32.00 38.00
M 47.00 18.00 
C 56.80 23.75 53.64 40.97 42.00 41.00
C 46.78 33.22 49.61 26.35 42.00 19.00
C 41.84 16.40 44.13 16.32 47.00 18.00
M 62.00 20.00 
C 60.66 23.22 58.62 25.96 57.00 29.00
C 57.45 29.22 57.80 30.61 58.00 31.00
C 59.23 33.41 60.83 35.61 62.00 38.00
C 62.42 38.87 64.91 39.24 64.00 41.00
C 62.12 40.53 59.07 42.06 58.00 40.00
C 54.71 38.29 53.34 34.19 55.00 31.00
C 55.10 30.81 55.94 29.03 56.00 29.00
C 53.11 25.73 54.37 20.13 58.00 18.00
C 59.66 17.02 61.72 16.70 64.00 17.00
C 64.27 18.28 63.23 19.72 62.00 20.00
M 72.00 40.00 
C 69.36 36.17 74.67 26.81 72.00 23.00
C 70.03 22.37 66.08 24.28 65.00 22.00
C 64.77 21.51 64.77 18.49 65.00 18.00
C 66.95 13.91 81.35 18.99 85.00 17.00
C 86.57 22.02 82.32 24.05 78.00 23.00
C 78.00 29.00 78.00 35.00 78.00 41.00
C 76.12 40.53 73.07 42.06 72.00 40.00
M 50.00 45.00 
C 50.66 47.36 51.58 50.21 53.00 52.00
C 46.61 55.79 49.18 60.63 45.68 67.68 C 42.17 74.72 35.61 66.19 36.00 60.00
C 31.65 60.11 32.72 73.00 26.99 70.99 C 21.26 68.98 23.58 60.67 20.00 57.00
C 24.50 55.63 26.79 59.12 27.00 63.00
C 32.95 64.61 29.83 52.94 35.08 53.08 C 40.33 53.22 36.60 64.85 43.00 63.00
C 43.34 58.28 46.37 53.71 44.00 49.00
C 46.75 49.27 47.68 45.71 50.00 45.00
M 65.00 68.00 
C 62.20 67.16 58.50 68.12 56.00 69.00
C 54.95 69.55 52.99 72.67 50.00 71.00
C 51.23 64.15 55.13 62.69 56.31 55.31 C 57.48 47.93 64.02 46.45 65.77 54.23 C 67.53 62.00 70.88 63.58 72.00 71.00
C 68.85 71.73 66.43 70.43 65.00 68.00
M 81.00 62.00 
C 83.64 57.10 82.90 46.45 91.00 48.00
C 90.06 56.19 84.28 62.90 83.00 71.00
C 73.80 70.15 73.16 55.51 70.00 48.00
C 78.37 46.42 76.17 58.27 81.00 62.00
M 113.00 51.00 
C 114.99 54.62 114.84 64.43 113.00 68.00
C 111.19 71.49 98.10 73.21 95.26 69.74 C 92.42 66.28 92.45 53.57 94.78 49.78 C 97.11 45.98 110.84 47.09 113.00 51.00
M 133.00 65.00 
C 133.58 67.32 132.26 73.69 132.00 68.00
C 129.21 72.47 127.64 67.74 126.00 72.00
C 124.45 69.69 124.62 66.32 126.00 64.00
C 128.88 68.35 128.90 67.35 133.00 65.00
M 124.00 65.00 
C 121.08 65.83 123.06 69.63 121.00 71.00
C 121.65 66.51 117.10 64.08 124.00 65.00 Z"/>
</g>
<g fill="#7FB2DD" fill-opacity="1.00" stroke="None">
<path d="
M 34.00 18.00 
C 35.67 18.00 37.33 18.00 39.00 18.00
C 39.00 25.33 39.00 32.67 39.00 40.00
C 36.27 40.49 33.98 39.70 32.00 38.00
C 33.15 41.43 37.03 41.19 40.00 41.00
C 41.23 36.57 38.37 29.13 40.00 25.00 C 41.63 20.87 37.30 13.15 34.00 18.00 Z"/>
</g>
<g fill="#7C92A4" fill-opacity="1.00" stroke="None">
<path d="
M 42.00 19.00 
C 42.75 17.82 45.61 17.57 47.00 18.00
C 44.13 16.32 41.84 16.40 42.00 19.00 Z"/>
</g>
<g fill="#74ADDB" fill-opacity="1.00" stroke="None">
<path d="
M 58.00 18.00 
C 61.13 16.81 62.04 17.99 62.00 20.00
C 63.23 19.72 64.27 18.28 64.00 17.00
C 61.72 16.70 59.66 17.02 58.00 18.00 Z"/>
</g>
<g fill="#91BFE5" fill-opacity="1.00" stroke="None">
<path d="
M 65.00 18.00 
C 71.33 18.00 77.67 18.00 84.00 18.00
C 85.58 23.01 80.14 22.02 77.00 22.00
C 77.00 28.00 77.00 34.00 77.00 40.00
C 75.33 40.00 73.67 40.00 72.00 40.00
C 73.07 42.06 76.12 40.53 78.00 41.00
C 78.00 35.00 78.00 29.00 78.00 23.00
C 82.32 24.05 86.57 22.02 85.00 17.00
C 81.35 18.99 66.95 13.91 65.00 18.00 Z"/>
</g>
<g fill="#0C6FC3" fill-opacity="1.00" stroke="None">
<path d="
M 20.00 40.00 
C 21.53 40.39 23.51 39.49 25.00 40.00
C 25.00 35.67 25.00 31.33 25.00 27.00
C 25.83 27.41 26.87 27.97 27.00 29.00
C 29.61 31.21 29.97 35.38 32.00 38.00
C 33.98 39.70 36.27 40.49 39.00 40.00
C 39.00 32.67 39.00 25.33 39.00 18.00
C 37.33 18.00 35.67 18.00 34.00 18.00
C 33.42 22.18 35.21 27.58 33.00 31.00
C 30.52 25.59 27.72 16.27 20.00 18.00
C 22.63 23.40 16.50 35.25 20.00 40.00 Z"/>
</g>
<g fill="#103656" fill-opacity="1.00" stroke="None">
<path d="
M 42.00 19.00 
C 49.61 26.35 46.78 33.22 42.00 41.00
C 53.64 40.97 56.80 23.75 47.00 18.00
C 45.61 17.57 42.75 17.82 42.00 19.00 Z"/>
</g>
<g fill="#196AB2" fill-opacity="1.00" stroke="None">
<path d="
M 56.00 29.00 
C 56.40 28.80 57.00 29.00 57.00 29.00
C 58.62 25.96 60.66 23.22 62.00 20.00
C 62.04 17.99 61.13 16.81 58.00 18.00
C 54.37 20.13 53.11 25.73 56.00 29.00 Z"/>
</g>
<g fill="#056FC5" fill-opacity="1.00" stroke="None">
<path d="
M 65.00 22.00 
C 67.25 22.48 70.54 20.92 72.00 23.00
C 74.67 26.81 69.36 36.17 72.00 40.00
C 73.67 40.00 75.33 40.00 77.00 40.00
C 77.00 34.00 77.00 28.00 77.00 22.00
C 80.14 22.02 85.58 23.01 84.00 18.00
C 77.67 18.00 71.33 18.00 65.00 18.00
C 64.77 18.49 64.77 21.51 65.00 22.00 Z"/>
</g>
<g fill="#AED0ED" fill-opacity="1.00" stroke="None">
<path d="
M 72.00 23.00 
C 70.54 20.92 67.25 22.48 65.00 22.00
C 66.08 24.28 70.03 22.37 72.00 23.00 Z"/>
</g>
<g fill="#AFCFEB" fill-opacity="1.00" stroke="None">
<path d="
M 25.00 40.00 
C 25.00 40.50 25.00 41.00 25.00 41.00
C 26.13 39.92 27.23 30.31 27.00 29.00
C 26.87 27.97 25.83 27.41 25.00 27.00
C 25.00 31.33 25.00 35.67 25.00 40.00 Z"/>
</g>
<g fill="#A0BED8" fill-opacity="1.00" stroke="None">
<path d="
M 55.00 31.00 
C 54.80 29.91 58.08 30.54 58.00 31.00
C 57.80 30.61 57.45 29.22 57.00 29.00
C 57.00 29.00 56.40 28.80 56.00 29.00
C 55.94 29.03 55.10 30.81 55.00 31.00 Z"/>
</g>
<g fill="#1467B0" fill-opacity="1.00" stroke="None">
<path d="
M 55.00 31.00 
C 53.34 34.19 54.71 38.29 58.00 40.00
C 61.07 40.97 62.17 40.20 62.00 38.00
C 60.83 35.61 59.23 33.41 58.00 31.00
C 58.08 30.54 54.80 29.91 55.00 31.00 Z"/>
</g>
<g fill="#5DA0D6" fill-opacity="1.00" stroke="None">
<path d="
M 58.00 40.00 
C 59.07 42.06 62.12 40.53 64.00 41.00
C 64.91 39.24 62.42 38.87 62.00 38.00
C 62.17 40.20 61.07 40.97 58.00 40.00 Z"/>
</g>
<g fill="#4E9AD7" fill-opacity="1.00" stroke="None">
<path d="
M 25.00 41.00 
C 25.00 41.00 25.00 40.50 25.00 40.00
C 23.51 39.49 21.53 40.39 20.00 40.00
C 20.90 41.22 23.44 41.50 25.00 41.00 Z"/>
</g>
<g fill="#0C3352" fill-opacity="1.00" stroke="None">
<path d="
M 50.00 45.00 
C 47.68 45.71 46.75 49.27 44.00 49.00
C 46.37 53.71 43.34 58.28 43.00 63.00
C 36.60 64.85 40.33 53.22 35.08 53.08 C 29.83 52.94 32.95 64.61 27.00 63.00
C 26.79 59.12 24.50 55.63 20.00 57.00
C 23.58 60.67 21.26 68.98 26.99 70.99 C 32.72 73.00 31.65 60.11 36.00 60.00
C 35.61 66.19 42.17 74.72 45.68 67.68 C 49.18 60.63 46.61 55.79 53.00 52.00
C 51.58 50.21 50.66 47.36 50.00 45.00 Z"/>
</g>
<g fill="#0C3352" fill-opacity="1.00" stroke="None">
<path d="
M 56.00 69.00 
C 59.26 67.30 61.19 66.22 65.00 68.00
C 66.43 70.43 68.85 71.73 72.00 71.00
C 70.88 63.58 67.53 62.00 65.77 54.23 C 64.02 46.45 57.48 47.93 56.31 55.31 C 55.13 62.69 51.23 64.15 50.00 71.00
C 52.99 72.67 54.95 69.55 56.00 69.00
M 63.00 63.00 
C 57.88 64.46 58.98 59.53 61.00 57.00
C 62.80 58.25 63.21 60.80 63.00 63.00 Z"/>
</g>
<g fill="#0E3352" fill-opacity="1.00" stroke="None">
<path d="
M 81.00 62.00 
C 76.17 58.27 78.37 46.42 70.00 48.00
C 73.16 55.51 73.80 70.15 83.00 71.00
C 84.28 62.90 90.06 56.19 91.00 48.00
C 82.90 46.45 83.64 57.10 81.00 62.00 Z"/>
</g>
<g fill="#093252" fill-opacity="1.00" stroke="None">
<path d="
M 113.00 68.00 
C 114.03 64.94 114.10 54.03 113.00 51.00
C 110.84 47.09 97.11 45.98 94.78 49.78 C 92.45 53.57 92.42 66.28 95.26 69.74 C 98.10 73.21 111.19 71.49 113.00 68.00
M 109.00 55.00 
C 107.32 56.75 104.37 55.73 102.00 56.00
C 100.55 59.45 107.77 56.69 108.00 59.00
C 108.52 62.85 102.94 59.39 102.00 62.00
C 101.86 65.47 106.85 63.44 109.00 64.00
C 109.00 65.00 109.00 66.00 109.00 67.00
C 108.22 68.60 97.84 69.38 98.08 65.92 C 98.33 62.45 96.46 54.44 99.00 52.00
C 102.31 51.70 105.69 52.22 109.00 52.00
C 109.00 53.00 109.00 54.00 109.00 55.00 Z"/>
</g>
<g fill="#869AAA" fill-opacity="1.00" stroke="None">
<path d="
M 113.00 68.00 
C 114.84 64.43 114.99 54.62 113.00 51.00
C 114.10 54.03 114.03 64.94 113.00 68.00 Z"/>
</g>
<g fill="#688196" fill-opacity="1.00" stroke="None">
<path d="
M 109.00 67.00 
C 105.67 67.00 102.33 67.00 99.00 67.00
C 99.00 62.33 99.00 57.67 99.00 53.00
C 99.00 52.50 99.00 52.00 99.00 52.00
C 96.46 54.44 98.33 62.45 98.08 65.92 C 97.84 69.38 108.22 68.60 109.00 67.00 Z"/>
</g>
<g fill="#ABB9C5" fill-opacity="1.00" stroke="None">
<path d="
M 99.00 53.00 
C 102.16 53.29 107.06 51.49 108.00 55.00
C 108.49 55.05 109.00 55.00 109.00 55.00
C 109.00 54.00 109.00 53.00 109.00 52.00
C 105.69 52.22 102.31 51.70 99.00 52.00
C 99.00 52.00 99.00 52.50 99.00 53.00 Z"/>
</g>
<g fill="#EEF1F5" fill-opacity="1.00" stroke="None">
<path d="
M 109.00 67.00 
C 109.00 66.00 109.00 65.00 109.00 64.00
C 106.85 63.44 101.86 65.47 102.00 62.00
C 102.94 59.39 108.52 62.85 108.00 59.00
C 107.77 56.69 100.55 59.45 102.00 56.00
C 102.66 54.44 106.53 54.84 108.00 55.00
C 107.06 51.49 102.16 53.29 99.00 53.00
C 99.00 57.67 99.00 62.33 99.00 67.00
C 102.33 67.00 105.67 67.00 109.00 67.00 Z"/>
</g>
<g fill="#667F94" fill-opacity="1.00" stroke="None">
<path d="
M 102.00 56.00 
C 104.37 55.73 107.32 56.75 109.00 55.00
C 109.00 55.00 108.49 55.05 108.00 55.00
C 106.53 54.84 102.66 54.44 102.00 56.00 Z"/>
</g>
<g fill="#CDD6DE" fill-opacity="1.00" stroke="None">
<path d="
M 63.00 63.00 
C 63.21 60.80 62.80 58.25 61.00 57.00
C 58.98 59.53 57.88 64.46 63.00 63.00 Z"/>
</g>
<g fill="#345370" fill-opacity="1.00" stroke="None">
<path d="
M 133.00 65.00 
C 128.90 67.35 128.88 68.35 126.00 64.00
C 124.62 66.32 124.45 69.69 126.00 72.00
C 127.64 67.74 129.21 72.47 132.00 68.00
C 132.26 73.69 133.58 67.32 133.00 65.00 Z"/>
</g>
<g fill="#173B5B" fill-opacity="1.00" stroke="None">
<path d="
M 124.00 65.00 
C 117.10 64.08 121.65 66.51 121.00 71.00
C 123.06 69.63 121.08 65.83 124.00 65.00 Z"/>
</g>
<g fill="#7F91A1" fill-opacity="1.00" stroke="None">
<path d="
M 56.00 69.00 
C 58.50 68.12 62.20 67.16 65.00 68.00
C 61.19 66.22 59.26 67.30 56.00 69.00 Z"/>
</g>
</svg>