<svg xmlns="http://www.w3.org/2000/svg" xmlns:v="https://svgstorm.com"
viewBox = "0 0 1587 630"
width="1587"
height="630">
<g fill="None" fill-opacity="0.0" stroke="#FEFEFE" stroke-opacity="1.00" stroke-width="0.3"><path d="
M 0.00 295.00 
C 7.08 141.15 146.77 1.00 303.00 1.00
C 302.96 1.00 303.00 0.00 303.00 0.00
L 0.00 0.00
L 0.00 295.00 Z"/>
</g>
<g fill="None" fill-opacity="0.0" stroke="#446996" stroke-opacity="1.00" stroke-width="0.3"><path d="
M 303.00 1.00 
C 311.33 1.00 319.67 1.00 328.00 1.00
C 327.96 1.00 328.00 0.00 328.00 0.00
L 303.00 0.00
C 303.00 0.00 302.96 1.00 303.00 1.00 Z"/>
</g>
<g fill="None" fill-opacity="0.0" stroke="#FEFEFE" stroke-opacity="1.00" stroke-width="0.3"><path d="
M 328.00 1.00 
C 494.21 1.00 631.01 152.66 631.00 315.00 C 630.99 477.34 494.23 629.00 328.00 629.00
C 328.04 629.00 328.00 630.00 328.00 630.00
L 1587.00 630.00
L 1587.00 335.00
C 1583.37 388.53 1545.89 453.00 1485.00 453.00
C 1482.18 453.27 1478.76 453.27 1476.00 453.00
C 1448.29 453.00 1423.14 437.34 1410.00 413.00
C 1410.01 456.67 1409.99 500.33 1410.00 544.00
C 1388.00 544.00 1366.00 544.00 1344.00 544.00
C 1343.99 426.00 1344.00 308.00 1344.00 190.00
C 1366.00 190.00 1388.00 190.00 1410.00 190.00
C 1410.00 202.00 1410.00 214.00 1410.00 226.00
C 1432.15 183.44 1486.49 175.73 1526.23 196.77 C 1565.97 217.81 1583.46 262.78 1587.00 305.00
L 1587.00 0.00
L 328.00 0.00
C 328.00 0.00 327.96 1.00 328.00 1.00
M 1001.00 452.00 
C 998.54 452.24 995.18 453.30 992.00 453.00
C 968.66 450.81 939.38 447.91 931.22 420.78 C 923.07 393.65 928.09 361.74 927.00 332.00 C 925.91 302.26 927.81 268.14 927.00 238.00
C 916.00 238.00 905.00 238.00 894.00 238.00
C 894.00 223.33 894.00 208.67 894.00 194.00
C 905.00 194.00 916.00 194.00 927.00 194.00
C 927.00 171.67 927.00 149.33 927.00 127.00
C 949.00 127.00 971.00 127.00 993.00 127.00
C 993.00 149.33 993.00 171.67 993.00 194.00
C 1005.33 194.00 1017.67 194.00 1030.00 194.00
C 1030.00 208.67 1030.00 223.33 1030.00 238.00
C 1017.67 238.00 1005.33 238.00 993.00 238.00
C 993.09 254.87 992.89 271.06 993.00 288.00 C 993.11 304.94 992.79 321.93 993.00 339.00 C 993.21 356.07 992.20 372.26 993.78 389.22 C 995.36 406.18 1017.44 403.91 1030.00 402.00
C 1030.00 417.34 1030.00 432.67 1030.00 448.00
C 1020.38 449.38 1011.23 452.86 1001.00 452.00
M 1192.00 185.00 
C 1235.87 189.25 1278.80 210.37 1295.32 254.68 C 1311.84 298.98 1312.30 355.86 1288.70 397.70 C 1265.09 439.53 1216.44 455.45 1171.00 453.00 C 1125.56 450.55 1085.00 426.47 1067.69 383.31 C 1050.39 340.14 1051.15 281.44 1074.77 240.77 C 1098.39 200.10 1145.99 180.55 1192.00 185.00
M 865.00 271.00 
C 853.13 271.21 839.71 270.72 828.00 271.00 C 816.29 271.28 800.28 274.03 799.07 261.93 C 797.87 249.82 789.82 246.62 780.98 242.03 C 772.13 237.43 758.24 236.66 748.00 237.00 C 737.76 237.34 728.59 241.13 720.75 247.75 C 712.91 254.37 712.78 267.91 721.70 273.30 C 730.62 278.69 739.89 280.61 749.67 283.33 C 759.46 286.04 768.52 289.07 778.22 291.78 C 787.92 294.48 798.43 297.35 808.02 299.98 C 817.62 302.60 827.45 305.48 836.23 309.77 C 845.01 314.06 851.66 318.59 857.75 326.25 C 863.85 333.90 868.10 342.18 869.93 352.07 C 871.76 361.96 871.49 377.45 869.00 387.00 C 866.51 396.56 862.65 405.37 857.23 413.23 C 851.81 421.09 846.58 427.12 838.75 432.75 C 830.93 438.39 823.38 441.62 813.98 444.98 C 804.57 448.33 793.58 450.85 782.98 451.98 C 772.37 453.10 757.01 453.52 746.00 453.00 C 734.99 452.48 723.00 450.28 712.78 448.22 C 702.55 446.17 692.88 443.46 683.93 439.07 C 674.97 434.69 668.97 430.09 661.75 423.25 C 654.54 416.41 650.61 409.34 646.68 400.32 C 642.75 391.31 640.74 379.16 640.00 369.00
C 661.67 369.00 683.33 369.00 705.00 369.00
C 703.71 394.72 735.53 400.39 753.00 401.00 C 770.47 401.61 807.90 398.88 805.00 375.00 C 802.10 351.12 768.90 355.16 751.99 347.01 C 735.08 338.85 709.61 334.93 691.32 327.68 C 673.03 320.43 654.55 308.41 651.22 286.78 C 647.89 265.15 650.76 239.64 664.25 222.25 C 677.75 204.87 692.49 196.99 713.02 191.02 C 733.56 185.06 765.39 184.12 786.67 188.33 C 807.95 192.54 825.11 199.13 841.25 213.75 C 857.38 228.38 863.88 250.06 865.00 271.00 Z"/>
</g>
<g fill="None" fill-opacity="0.0" stroke="#1C4980" stroke-opacity="1.00" stroke-width="0.3"><path d="
M 0.00 295.00 
L 0.00 334.00
C 6.45 488.26 146.44 629.00 303.00 629.00
C 311.33 629.00 319.67 629.00 328.00 629.00
C 494.23 629.00 630.99 477.34 631.00 315.00 C 631.01 152.66 494.21 1.00 328.00 1.00
C 319.67 1.00 311.33 1.00 303.00 1.00
C 146.77 1.00 7.08 141.15 0.00 295.00
M 574.00 442.00 
C 552.00 442.00 530.00 442.00 508.00 442.00
C 508.03 415.30 507.96 386.49 508.00 360.00 C 508.04 333.51 507.92 302.63 508.00 277.00 C 508.08 251.37 482.77 239.11 461.33 241.33 C 439.89 243.55 418.64 253.51 414.67 277.67 C 410.71 301.84 413.81 332.90 413.00 359.00 C 412.19 385.10 413.61 415.51 413.00 442.00
C 391.00 442.00 369.00 442.00 347.00 442.00
C 347.00 358.00 347.00 274.00 347.00 190.00
C 369.00 190.00 391.00 190.00 413.00 190.00
C 413.00 202.00 413.00 214.00 413.00 226.00
C 429.51 200.47 456.43 185.11 487.00 186.00 C 517.57 186.89 547.77 193.81 562.92 224.08 C 578.08 254.34 573.83 291.15 574.00 327.00 C 574.17 362.85 573.87 405.53 574.00 442.00
M 123.00 191.00 
C 126.30 195.71 121.51 206.01 123.00 212.00 C 124.49 217.99 122.33 226.41 123.00 233.00 C 123.67 239.59 122.70 247.08 123.00 254.00 C 123.30 260.92 122.84 268.95 123.00 276.00 C 123.16 283.05 122.87 289.88 123.00 297.00 C 123.13 304.12 122.83 310.75 123.00 318.00 C 123.17 325.25 122.67 331.44 123.00 339.00 C 123.33 346.56 122.32 352.94 123.00 361.00 C 123.68 369.06 123.93 368.62 127.31 377.69 C 130.68 386.77 141.54 394.92 151.01 395.99 C 160.48 397.06 161.61 398.80 170.22 397.22 C 178.83 395.64 179.47 397.25 188.02 394.02 C 196.58 390.80 206.46 382.99 210.92 374.92 C 215.38 366.85 215.06 366.44 216.98 358.98 C 218.89 351.51 217.78 346.35 218.00 339.00 C 218.22 331.65 217.90 325.19 218.00 318.00 C 218.10 310.81 217.96 304.17 218.00 297.00 C 218.04 289.83 217.98 282.14 218.00 275.00 C 218.02 267.86 217.99 261.09 218.00 254.00 C 218.01 246.91 218.00 240.09 218.00 233.00 C 218.00 225.91 218.00 219.16 218.00 212.00 C 218.00 204.84 218.00 197.20 218.00 190.00
C 240.00 190.00 262.00 190.00 284.00 190.00
C 284.00 274.00 284.00 358.00 284.00 442.00
C 262.00 442.00 240.00 442.00 218.00 442.00
C 217.34 432.83 219.33 422.34 217.00 414.00
C 202.66 438.56 175.36 454.08 147.00 453.00
C 143.86 453.30 140.08 453.30 137.00 453.00
C 127.15 453.00 128.18 452.93 117.93 451.07 C 107.67 449.21 96.22 444.75 87.75 438.25 C 79.29 431.75 73.10 425.23 68.08 415.92 C 63.05 406.62 58.52 393.64 58.00 383.00 C 57.48 372.36 56.61 370.93 57.00 362.00 C 57.39 353.07 56.81 348.89 57.00 341.00 C 57.19 333.11 56.89 327.46 57.00 320.00 C 57.11 312.54 56.90 305.26 57.00 298.00 C 57.10 290.74 56.84 284.08 57.00 277.00 C 57.16 269.92 56.66 262.95 57.00 256.00 C 57.34 249.05 56.30 240.71 57.00 234.00 C 57.70 227.29 55.40 219.08 57.00 213.00 C 58.60 206.92 53.60 195.86 57.00 191.00
C 59.58 187.31 72.98 190.50 78.00 190.00 C 83.02 189.50 95.95 189.31 101.00 190.00 C 106.05 190.69 120.33 187.19 123.00 191.00 Z"/>
</g>
<g fill="None" fill-opacity="0.0" stroke="#1C4980" stroke-opacity="1.00" stroke-width="0.3"><path d="
M 992.00 453.00 
C 994.11 452.99 998.14 452.00 1001.00 452.00
C 1011.23 452.86 1020.38 449.38 1030.00 448.00
C 1030.00 432.67 1030.00 417.34 1030.00 402.00
C 1017.44 403.91 995.36 406.18 993.78 389.22 C 992.20 372.26 993.21 356.07 993.00 339.00 C 992.79 321.93 993.11 304.94 993.00 288.00 C 992.89 271.06 993.09 254.87 993.00 238.00
C 1005.33 238.00 1017.67 238.00 1030.00 238.00
C 1030.00 223.33 1030.00 208.67 1030.00 194.00
C 1017.67 194.00 1005.33 194.00 993.00 194.00
C 993.00 171.67 993.00 149.33 993.00 127.00
C 971.00 127.00 949.00 127.00 927.00 127.00
C 927.00 149.33 927.00 171.67 927.00 194.00
C 916.00 194.00 905.00 194.00 894.00 194.00
C 894.00 208.67 894.00 223.33 894.00 238.00
C 905.00 238.00 916.00 238.00 927.00 238.00
C 927.81 268.14 925.91 302.26 927.00 332.00 C 928.09 361.74 923.07 393.65 931.22 420.78 C 939.38 447.91 968.66 450.81 992.00 453.00 Z"/>
</g>
<g fill="None" fill-opacity="0.0" stroke="#1C4980" stroke-opacity="1.00" stroke-width="0.3"><path d="
M 1192.00 185.00 
C 1145.99 180.55 1098.39 200.10 1074.77 240.77 C 1051.15 281.44 1050.39 340.14 1067.69 383.31 C 1085.00 426.47 1125.56 450.55 1171.00 453.00 C 1216.44 455.45 1265.09 439.53 1288.70 397.70 C 1312.30 355.86 1311.84 298.98 1295.32 254.68 C 1278.80 210.37 1235.87 189.25 1192.00 185.00
M 1187.00 238.00 
C 1228.95 242.06 1241.15 287.97 1241.00 324.00 C 1240.85 360.03 1218.43 404.58 1176.00 400.00 C 1133.57 395.42 1121.60 350.09 1122.00 314.00 C 1122.40 277.91 1144.52 233.89 1187.00 238.00 Z"/>
</g>
<g fill="None" fill-opacity="0.0" stroke="#1C4980" stroke-opacity="1.00" stroke-width="0.3"><path d="
M 1476.00 453.00 
C 1479.00 453.00 1482.00 453.00 1485.00 453.00
C 1545.89 453.00 1583.37 388.53 1587.00 335.00
L 1587.00 305.00
C 1583.46 262.78 1565.97 217.81 1526.23 196.77 C 1486.49 175.73 1432.15 183.44 1410.00 226.00
C 1410.00 214.00 1410.00 202.00 1410.00 190.00
C 1388.00 190.00 1366.00 190.00 1344.00 190.00
C 1344.00 308.00 1343.99 426.00 1344.00 544.00
C 1366.00 544.00 1388.00 544.00 1410.00 544.00
C 1409.99 500.33 1410.01 456.67 1410.00 413.00
C 1423.14 437.34 1448.29 453.00 1476.00 453.00
M 1473.00 240.00 
C 1513.25 245.75 1520.67 292.33 1521.00 326.00 C 1521.33 359.67 1498.22 404.94 1458.00 398.00 C 1417.78 391.06 1409.79 345.67 1410.00 312.00 C 1410.21 278.33 1432.79 234.26 1473.00 240.00 Z"/>
</g>
<g fill="None" fill-opacity="0.0" stroke="#FEFEFE" stroke-opacity="1.00" stroke-width="0.3"><path d="
M 574.00 442.00 
C 573.87 405.53 574.17 362.85 574.00 327.00 C 573.83 291.15 578.08 254.34 562.92 224.08 C 547.77 193.81 517.57 186.89 487.00 186.00 C 456.43 185.11 429.51 200.47 413.00 226.00
C 413.00 214.00 413.00 202.00 413.00 190.00
C 391.00 190.00 369.00 190.00 347.00 190.00
C 347.00 274.00 347.00 358.00 347.00 442.00
C 369.00 442.00 391.00 442.00 413.00 442.00
C 413.61 415.51 412.19 385.10 413.00 359.00 C 413.81 332.90 410.71 301.84 414.67 277.67 C 418.64 253.51 439.89 243.55 461.33 241.33 C 482.77 239.11 508.08 251.37 508.00 277.00 C 507.92 302.63 508.04 333.51 508.00 360.00 C 507.96 386.49 508.03 415.30 508.00 442.00
C 530.00 442.00 552.00 442.00 574.00 442.00 Z"/>
</g>
<g fill="None" fill-opacity="0.0" stroke="#1C4980" stroke-opacity="1.00" stroke-width="0.3"><path d="
M 865.00 271.00 
C 863.88 250.06 857.38 228.38 841.25 213.75 C 825.11 199.13 807.95 192.54 786.67 188.33 C 765.39 184.12 733.56 185.06 713.02 191.02 C 692.49 196.99 677.75 204.87 664.25 222.25 C 650.76 239.64 647.89 265.15 651.22 286.78 C 654.55 308.41 673.03 320.43 691.32 327.68 C 709.61 334.93 735.08 338.85 751.99 347.01 C 768.90 355.16 802.10 351.12 805.00 375.00 C 807.90 398.88 770.47 401.61 753.00 401.00 C 735.53 400.39 703.71 394.72 705.00 369.00
C 683.33 369.00 661.67 369.00 640.00 369.00
C 640.74 379.16 642.75 391.31 646.68 400.32 C 650.61 409.34 654.54 416.41 661.75 423.25 C 668.97 430.09 674.97 434.69 683.93 439.07 C 692.88 443.46 702.55 446.17 712.78 448.22 C 723.00 450.28 734.99 452.48 746.00 453.00 C 757.01 453.52 772.37 453.10 782.98 451.98 C 793.58 450.85 804.57 448.33 813.98 444.98 C 823.38 441.62 830.93 438.39 838.75 432.75 C 846.58 427.12 851.81 421.09 857.23 413.23 C 862.65 405.37 866.51 396.56 869.00 387.00 C 871.49 377.45 871.76 361.96 869.93 352.07 C 868.10 342.18 863.85 333.90 857.75 326.25 C 851.66 318.59 845.01 314.06 836.23 309.77 C 827.45 305.48 817.62 302.60 808.02 299.98 C 798.43 297.35 787.92 294.48 778.22 291.78 C 768.52 289.07 759.46 286.04 749.67 283.33 C 739.89 280.61 730.62 278.69 721.70 273.30 C 712.78 267.91 712.91 254.37 720.75 247.75 C 728.59 241.13 737.76 237.34 748.00 237.00 C 758.24 236.66 772.13 237.43 780.98 242.03 C 789.82 246.62 797.87 249.82 799.07 261.93 C 800.28 274.03 816.29 271.28 828.00 271.00 C 839.71 270.72 853.13 271.21 865.00 271.00 Z"/>
</g>
<g fill="None" fill-opacity="0.0" stroke="#7F99B6" stroke-opacity="1.00" stroke-width="0.3"><path d="
M 57.00 191.00 
C 79.00 191.00 101.00 191.00 123.00 191.00
C 120.33 187.19 106.05 190.69 101.00 190.00 C 95.95 189.31 83.02 189.50 78.00 190.00 C 72.98 190.50 59.58 187.31 57.00 191.00 Z"/>
</g>
<g fill="None" fill-opacity="0.0" stroke="#FEFEFE" stroke-opacity="1.00" stroke-width="0.3"><path d="
M 123.00 191.00 
C 101.00 191.00 79.00 191.00 57.00 191.00
C 53.60 195.86 58.60 206.92 57.00 213.00 C 55.40 219.08 57.70 227.29 57.00 234.00 C 56.30 240.71 57.34 249.05 57.00 256.00 C 56.66 262.95 57.16 269.92 57.00 277.00 C 56.84 284.08 57.10 290.74 57.00 298.00 C 56.90 305.26 57.11 312.54 57.00 320.00 C 56.89 327.46 57.19 333.11 57.00 341.00 C 56.81 348.89 57.39 353.07 57.00 362.00 C 56.61 370.93 57.48 372.36 58.00 383.00 C 58.52 393.64 63.05 406.62 68.08 415.92 C 73.10 425.23 79.29 431.75 87.75 438.25 C 96.22 444.75 107.67 449.21 117.93 451.07 C 128.18 452.93 127.15 453.00 137.00 453.00
C 140.33 453.00 143.67 453.00 147.00 453.00
C 175.36 454.08 202.66 438.56 217.00 414.00
C 219.33 422.34 217.34 432.83 218.00 442.00
C 240.00 442.00 262.00 442.00 284.00 442.00
C 284.00 358.00 284.00 274.00 284.00 190.00
C 262.00 190.00 240.00 190.00 218.00 190.00
C 218.00 197.20 218.00 204.84 218.00 212.00 C 218.00 219.16 218.00 225.91 218.00 233.00 C 218.00 240.09 218.01 246.91 218.00 254.00 C 217.99 261.09 218.02 267.86 218.00 275.00 C 217.98 282.14 218.04 289.83 218.00 297.00 C 217.96 304.17 218.10 310.81 218.00 318.00 C 217.90 325.19 218.22 331.65 218.00 339.00 C 217.78 346.35 218.89 351.51 216.98 358.98 C 215.06 366.44 215.38 366.85 210.92 374.92 C 206.46 382.99 196.58 390.80 188.02 394.02 C 179.47 397.25 178.83 395.64 170.22 397.22 C 161.61 398.80 160.48 397.06 151.01 395.99 C 141.54 394.92 130.68 386.77 127.31 377.69 C 123.93 368.62 123.68 369.06 123.00 361.00 C 122.32 352.94 123.33 346.56 123.00 339.00 C 122.67 331.44 123.17 325.25 123.00 318.00 C 122.83 310.75 123.13 304.12 123.00 297.00 C 122.87 289.88 123.16 283.05 123.00 276.00 C 122.84 268.95 123.30 260.92 123.00 254.00 C 122.70 247.08 123.67 239.59 123.00 233.00 C 122.33 226.41 124.49 217.99 123.00 212.00 C 121.51 206.01 126.30 195.71 123.00 191.00 Z"/>
</g>
<g fill="None" fill-opacity="0.0" stroke="#FEFEFE" stroke-opacity="1.00" stroke-width="0.3"><path d="
M 1187.00 238.00 
C 1144.52 233.89 1122.40 277.91 1122.00 314.00 C 1121.60 350.09 1133.57 395.42 1176.00 400.00 C 1218.43 404.58 1240.85 360.03 1241.00 324.00 C 1241.15 287.97 1228.95 242.06 1187.00 238.00 Z"/>
</g>
<g fill="None" fill-opacity="0.0" stroke="#FEFEFE" stroke-opacity="1.00" stroke-width="0.3"><path d="
M 1473.00 240.00 
C 1432.79 234.26 1410.21 278.33 1410.00 312.00 C 1409.79 345.67 1417.78 391.06 1458.00 398.00 C 1498.22 404.94 1521.33 359.67 1521.00 326.00 C 1520.67 292.33 1513.25 245.75 1473.00 240.00 Z"/>
</g>
<g fill="None" fill-opacity="0.0" stroke="#FEFEFE" stroke-opacity="1.00" stroke-width="0.3"><path d="
M 0.00 630.00 
L 303.00 630.00
C 303.00 629.50 303.00 629.00 303.00 629.00
C 146.44 629.00 6.45 488.26 0.00 334.00
L 0.00 630.00 Z"/>
</g>
<g fill="None" fill-opacity="0.0" stroke="#89A1BC" stroke-opacity="1.00" stroke-width="0.3"><path d="
M 992.00 453.00 
C 995.18 453.30 998.54 452.24 1001.00 452.00
C 998.14 452.00 994.11 452.99 992.00 453.00 Z"/>
</g>
<g fill="None" fill-opacity="0.0" stroke="#8FA5C0" stroke-opacity="1.00" stroke-width="0.3"><path d="
M 147.00 453.00 
C 143.67 453.00 140.33 453.00 137.00 453.00
C 140.08 453.30 143.86 453.30 147.00 453.00 Z"/>
</g>
<g fill="None" fill-opacity="0.0" stroke="#8BA1BE" stroke-opacity="1.00" stroke-width="0.3"><path d="
M 1485.00 453.00 
C 1482.00 453.00 1479.00 453.00 1476.00 453.00
C 1478.76 453.27 1482.18 453.27 1485.00 453.00 Z"/>
</g>
<g fill="None" fill-opacity="0.0" stroke="#446996" stroke-opacity="1.00" stroke-width="0.3"><path d="
M 303.00 630.00 
L 328.00 630.00
C 328.00 630.00 328.04 629.00 328.00 629.00
C 319.67 629.00 311.33 629.00 303.00 629.00
C 303.00 629.00 303.00 629.50 303.00 630.00 Z"/>
</g>
<g fill="#FEFEFE" fill-opacity="1.00" stroke="None">
<path d="
M 0.00 295.00 
C 7.08 141.15 146.77 1.00 303.00 1.00
C 302.96 1.00 303.00 0.00 303.00 0.00
L 0.00 0.00
L 0.00 295.00 Z"/>
</g>
<g fill="#446996" fill-opacity="1.00" stroke="None">
<path d="
M 303.00 1.00 
C 311.33 1.00 319.67 1.00 328.00 1.00
C 327.96 1.00 328.00 0.00 328.00 0.00
L 303.00 0.00
C 303.00 0.00 302.96 1.00 303.00 1.00 Z"/>
</g>
<g fill="#FEFEFE" fill-opacity="1.00" stroke="None">
<path d="
M 328.00 1.00 
C 494.21 1.00 631.01 152.66 631.00 315.00 C 630.99 477.34 494.23 629.00 328.00 629.00
C 328.04 629.00 328.00 630.00 328.00 630.00
L 1587.00 630.00
L 1587.00 335.00
C 1583.37 388.53 1545.89 453.00 1485.00 453.00
C 1482.18 453.27 1478.76 453.27 1476.00 453.00
C 1448.29 453.00 1423.14 437.34 1410.00 413.00
C 1410.01 456.67 1409.99 500.33 1410.00 544.00
C 1388.00 544.00 1366.00 544.00 1344.00 544.00
C 1343.99 426.00 1344.00 308.00 1344.00 190.00
C 1366.00 190.00 1388.00 190.00 1410.00 190.00
C 1410.00 202.00 1410.00 214.00 1410.00 226.00
C 1432.15 183.44 1486.49 175.73 1526.23 196.77 C 1565.97 217.81 1583.46 262.78 1587.00 305.00
L 1587.00 0.00
L 328.00 0.00
C 328.00 0.00 327.96 1.00 328.00 1.00
M 1001.00 452.00 
C 998.54 452.24 995.18 453.30 992.00 453.00
C 968.66 450.81 939.38 447.91 931.22 420.78 C 923.07 393.65 928.09 361.74 927.00 332.00 C 925.91 302.26 927.81 268.14 927.00 238.00
C 916.00 238.00 905.00 238.00 894.00 238.00
C 894.00 223.33 894.00 208.67 894.00 194.00
C 905.00 194.00 916.00 194.00 927.00 194.00
C 927.00 171.67 927.00 149.33 927.00 127.00
C 949.00 127.00 971.00 127.00 993.00 127.00
C 993.00 149.33 993.00 171.67 993.00 194.00
C 1005.33 194.00 1017.67 194.00 1030.00 194.00
C 1030.00 208.67 1030.00 223.33 1030.00 238.00
C 1017.67 238.00 1005.33 238.00 993.00 238.00
C 993.09 254.87 992.89 271.06 993.00 288.00 C 993.11 304.94 992.79 321.93 993.00 339.00 C 993.21 356.07 992.20 372.26 993.78 389.22 C 995.36 406.18 1017.44 403.91 1030.00 402.00
C 1030.00 417.34 1030.00 432.67 1030.00 448.00
C 1020.38 449.38 1011.23 452.86 1001.00 452.00
M 1192.00 185.00 
C 1235.87 189.25 1278.80 210.37 1295.32 254.68 C 1311.84 298.98 1312.30 355.86 1288.70 397.70 C 1265.09 439.53 1216.44 455.45 1171.00 453.00 C 1125.56 450.55 1085.00 426.47 1067.69 383.31 C 1050.39 340.14 1051.15 281.44 1074.77 240.77 C 1098.39 200.10 1145.99 180.55 1192.00 185.00
M 865.00 271.00 
C 853.13 271.21 839.71 270.72 828.00 271.00 C 816.29 271.28 800.28 274.03 799.07 261.93 C 797.87 249.82 789.82 246.62 780.98 242.03 C 772.13 237.43 758.24 236.66 748.00 237.00 C 737.76 237.34 728.59 241.13 720.75 247.75 C 712.91 254.37 712.78 267.91 721.70 273.30 C 730.62 278.69 739.89 280.61 749.67 283.33 C 759.46 286.04 768.52 289.07 778.22 291.78 C 787.92 294.48 798.43 297.35 808.02 299.98 C 817.62 302.60 827.45 305.48 836.23 309.77 C 845.01 314.06 851.66 318.59 857.75 326.25 C 863.85 333.90 868.10 342.18 869.93 352.07 C 871.76 361.96 871.49 377.45 869.00 387.00 C 866.51 396.56 862.65 405.37 857.23 413.23 C 851.81 421.09 846.58 427.12 838.75 432.75 C 830.93 438.39 823.38 441.62 813.98 444.98 C 804.57 448.33 793.58 450.85 782.98 451.98 C 772.37 453.10 757.01 453.52 746.00 453.00 C 734.99 452.48 723.00 450.28 712.78 448.22 C 702.55 446.17 692.88 443.46 683.93 439.07 C 674.97 434.69 668.97 430.09 661.75 423.25 C 654.54 416.41 650.61 409.34 646.68 400.32 C 642.75 391.31 640.74 379.16 640.00 369.00
C 661.67 369.00 683.33 369.00 705.00 369.00
C 703.71 394.72 735.53 400.39 753.00 401.00 C 770.47 401.61 807.90 398.88 805.00 375.00 C 802.10 351.12 768.90 355.16 751.99 347.01 C 735.08 338.85 709.61 334.93 691.32 327.68 C 673.03 320.43 654.55 308.41 651.22 286.78 C 647.89 265.15 650.76 239.64 664.25 222.25 C 677.75 204.87 692.49 196.99 713.02 191.02 C 733.56 185.06 765.39 184.12 786.67 188.33 C 807.95 192.54 825.11 199.13 841.25 213.75 C 857.38 228.38 863.88 250.06 865.00 271.00 Z"/>
</g>
<g fill="#1C4980" fill-opacity="1.00" stroke="None">
<path d="
M 0.00 295.00 
L 0.00 334.00
C 6.45 488.26 146.44 629.00 303.00 629.00
C 311.33 629.00 319.67 629.00 328.00 629.00
C 494.23 629.00 630.99 477.34 631.00 315.00 C 631.01 152.66 494.21 1.00 328.00 1.00
C 319.67 1.00 311.33 1.00 303.00 1.00
C 146.77 1.00 7.08 141.15 0.00 295.00
M 574.00 442.00 
C 552.00 442.00 530.00 442.00 508.00 442.00
C 508.03 415.30 507.96 386.49 508.00 360.00 C 508.04 333.51 507.92 302.63 508.00 277.00 C 508.08 251.37 482.77 239.11 461.33 241.33 C 439.89 243.55 418.64 253.51 414.67 277.67 C 410.71 301.84 413.81 332.90 413.00 359.00 C 412.19 385.10 413.61 415.51 413.00 442.00
C 391.00 442.00 369.00 442.00 347.00 442.00
C 347.00 358.00 347.00 274.00 347.00 190.00
C 369.00 190.00 391.00 190.00 413.00 190.00
C 413.00 202.00 413.00 214.00 413.00 226.00
C 429.51 200.47 456.43 185.11 487.00 186.00 C 517.57 186.89 547.77 193.81 562.92 224.08 C 578.08 254.34 573.83 291.15 574.00 327.00 C 574.17 362.85 573.87 405.53 574.00 442.00
M 123.00 191.00 
C 126.30 195.71 121.51 206.01 123.00 212.00 C 124.49 217.99 122.33 226.41 123.00 233.00 C 123.67 239.59 122.70 247.08 123.00 254.00 C 123.30 260.92 122.84 268.95 123.00 276.00 C 123.16 283.05 122.87 289.88 123.00 297.00 C 123.13 304.12 122.83 310.75 123.00 318.00 C 123.17 325.25 122.67 331.44 123.00 339.00 C 123.33 346.56 122.32 352.94 123.00 361.00 C 123.68 369.06 123.93 368.62 127.31 377.69 C 130.68 386.77 141.54 394.92 151.01 395.99 C 160.48 397.06 161.61 398.80 170.22 397.22 C 178.83 395.64 179.47 397.25 188.02 394.02 C 196.58 390.80 206.46 382.99 210.92 374.92 C 215.38 366.85 215.06 366.44 216.98 358.98 C 218.89 351.51 217.78 346.35 218.00 339.00 C 218.22 331.65 217.90 325.19 218.00 318.00 C 218.10 310.81 217.96 304.17 218.00 297.00 C 218.04 289.83 217.98 282.14 218.00 275.00 C 218.02 267.86 217.99 261.09 218.00 254.00 C 218.01 246.91 218.00 240.09 218.00 233.00 C 218.00 225.91 218.00 219.16 218.00 212.00 C 218.00 204.84 218.00 197.20 218.00 190.00
C 240.00 190.00 262.00 190.00 284.00 190.00
C 284.00 274.00 284.00 358.00 284.00 442.00
C 262.00 442.00 240.00 442.00 218.00 442.00
C 217.34 432.83 219.33 422.34 217.00 414.00
C 202.66 438.56 175.36 454.08 147.00 453.00
C 143.86 453.30 140.08 453.30 137.00 453.00
C 127.15 453.00 128.18 452.93 117.93 451.07 C 107.67 449.21 96.22 444.75 87.75 438.25 C 79.29 431.75 73.10 425.23 68.08 415.92 C 63.05 406.62 58.52 393.64 58.00 383.00 C 57.48 372.36 56.61 370.93 57.00 362.00 C 57.39 353.07 56.81 348.89 57.00 341.00 C 57.19 333.11 56.89 327.46 57.00 320.00 C 57.11 312.54 56.90 305.26 57.00 298.00 C 57.10 290.74 56.84 284.08 57.00 277.00 C 57.16 269.92 56.66 262.95 57.00 256.00 C 57.34 249.05 56.30 240.71 57.00 234.00 C 57.70 227.29 55.40 219.08 57.00 213.00 C 58.60 206.92 53.60 195.86 57.00 191.00
C 59.58 187.31 72.98 190.50 78.00 190.00 C 83.02 189.50 95.95 189.31 101.00 190.00 C 106.05 190.69 120.33 187.19 123.00 191.00 Z"/>
</g>
<g fill="#1C4980" fill-opacity="1.00" stroke="None">
<path d="
M 992.00 453.00 
C 994.11 452.99 998.14 452.00 1001.00 452.00
C 1011.23 452.86 1020.38 449.38 1030.00 448.00
C 1030.00 432.67 1030.00 417.34 1030.00 402.00
C 1017.44 403.91 995.36 406.18 993.78 389.22 C 992.20 372.26 993.21 356.07 993.00 339.00 C 992.79 321.93 993.11 304.94 993.00 288.00 C 992.89 271.06 993.09 254.87 993.00 238.00
C 1005.33 238.00 1017.67 238.00 1030.00 238.00
C 1030.00 223.33 1030.00 208.67 1030.00 194.00
C 1017.67 194.00 1005.33 194.00 993.00 194.00
C 993.00 171.67 993.00 149.33 993.00 127.00
C 971.00 127.00 949.00 127.00 927.00 127.00
C 927.00 149.33 927.00 171.67 927.00 194.00
C 916.00 194.00 905.00 194.00 894.00 194.00
C 894.00 208.67 894.00 223.33 894.00 238.00
C 905.00 238.00 916.00 238.00 927.00 238.00
C 927.81 268.14 925.91 302.26 927.00 332.00 C 928.09 361.74 923.07 393.65 931.22 420.78 C 939.38 447.91 968.66 450.81 992.00 453.00 Z"/>
</g>
<g fill="#1C4980" fill-opacity="1.00" stroke="None">
<path d="
M 1192.00 185.00 
C 1145.99 180.55 1098.39 200.10 1074.77 240.77 C 1051.15 281.44 1050.39 340.14 1067.69 383.31 C 1085.00 426.47 1125.56 450.55 1171.00 453.00 C 1216.44 455.45 1265.09 439.53 1288.70 397.70 C 1312.30 355.86 1311.84 298.98 1295.32 254.68 C 1278.80 210.37 1235.87 189.25 1192.00 185.00
M 1187.00 238.00 
C 1228.95 242.06 1241.15 287.97 1241.00 324.00 C 1240.85 360.03 1218.43 404.58 1176.00 400.00 C 1133.57 395.42 1121.60 350.09 1122.00 314.00 C 1122.40 277.91 1144.52 233.89 1187.00 238.00 Z"/>
</g>
<g fill="#1C4980" fill-opacity="1.00" stroke="None">
<path d="
M 1476.00 453.00 
C 1479.00 453.00 1482.00 453.00 1485.00 453.00
C 1545.89 453.00 1583.37 388.53 1587.00 335.00
L 1587.00 305.00
C 1583.46 262.78 1565.97 217.81 1526.23 196.77 C 1486.49 175.73 1432.15 183.44 1410.00 226.00
C 1410.00 214.00 1410.00 202.00 1410.00 190.00
C 1388.00 190.00 1366.00 190.00 1344.00 190.00
C 1344.00 308.00 1343.99 426.00 1344.00 544.00
C 1366.00 544.00 1388.00 544.00 1410.00 544.00
C 1409.99 500.33 1410.01 456.67 1410.00 413.00
C 1423.14 437.34 1448.29 453.00 1476.00 453.00
M 1473.00 240.00 
C 1513.25 245.75 1520.67 292.33 1521.00 326.00 C 1521.33 359.67 1498.22 404.94 1458.00 398.00 C 1417.78 391.06 1409.79 345.67 1410.00 312.00 C 1410.21 278.33 1432.79 234.26 1473.00 240.00 Z"/>
</g>
<g fill="#FEFEFE" fill-opacity="1.00" stroke="None">
<path d="
M 574.00 442.00 
C 573.87 405.53 574.17 362.85 574.00 327.00 C 573.83 291.15 578.08 254.34 562.92 224.08 C 547.77 193.81 517.57 186.89 487.00 186.00 C 456.43 185.11 429.51 200.47 413.00 226.00
C 413.00 214.00 413.00 202.00 413.00 190.00
C 391.00 190.00 369.00 190.00 347.00 190.00
C 347.00 274.00 347.00 358.00 347.00 442.00
C 369.00 442.00 391.00 442.00 413.00 442.00
C 413.61 415.51 412.19 385.10 413.00 359.00 C 413.81 332.90 410.71 301.84 414.67 277.67 C 418.64 253.51 439.89 243.55 461.33 241.33 C 482.77 239.11 508.08 251.37 508.00 277.00 C 507.92 302.63 508.04 333.51 508.00 360.00 C 507.96 386.49 508.03 415.30 508.00 442.00
C 530.00 442.00 552.00 442.00 574.00 442.00 Z"/>
</g>
<g fill="#1C4980" fill-opacity="1.00" stroke="None">
<path d="
M 865.00 271.00 
C 863.88 250.06 857.38 228.38 841.25 213.75 C 825.11 199.13 807.95 192.54 786.67 188.33 C 765.39 184.12 733.56 185.06 713.02 191.02 C 692.49 196.99 677.75 204.87 664.25 222.25 C 650.76 239.64 647.89 265.15 651.22 286.78 C 654.55 308.41 673.03 320.43 691.32 327.68 C 709.61 334.93 735.08 338.85 751.99 347.01 C 768.90 355.16 802.10 351.12 805.00 375.00 C 807.90 398.88 770.47 401.61 753.00 401.00 C 735.53 400.39 703.71 394.72 705.00 369.00
C 683.33 369.00 661.67 369.00 640.00 369.00
C 640.74 379.16 642.75 391.31 646.68 400.32 C 650.61 409.34 654.54 416.41 661.75 423.25 C 668.97 430.09 674.97 434.69 683.93 439.07 C 692.88 443.46 702.55 446.17 712.78 448.22 C 723.00 450.28 734.99 452.48 746.00 453.00 C 757.01 453.52 772.37 453.10 782.98 451.98 C 793.58 450.85 804.57 448.33 813.98 444.98 C 823.38 441.62 830.93 438.39 838.75 432.75 C 846.58 427.12 851.81 421.09 857.23 413.23 C 862.65 405.37 866.51 396.56 869.00 387.00 C 871.49 377.45 871.76 361.96 869.93 352.07 C 868.10 342.18 863.85 333.90 857.75 326.25 C 851.66 318.59 845.01 314.06 836.23 309.77 C 827.45 305.48 817.62 302.60 808.02 299.98 C 798.43 297.35 787.92 294.48 778.22 291.78 C 768.52 289.07 759.46 286.04 749.67 283.33 C 739.89 280.61 730.62 278.69 721.70 273.30 C 712.78 267.91 712.91 254.37 720.75 247.75 C 728.59 241.13 737.76 237.34 748.00 237.00 C 758.24 236.66 772.13 237.43 780.98 242.03 C 789.82 246.62 797.87 249.82 799.07 261.93 C 800.28 274.03 816.29 271.28 828.00 271.00 C 839.71 270.72 853.13 271.21 865.00 271.00 Z"/>
</g>
<g fill="#7F99B6" fill-opacity="1.00" stroke="None">
<path d="
M 57.00 191.00 
C 79.00 191.00 101.00 191.00 123.00 191.00
C 120.33 187.19 106.05 190.69 101.00 190.00 C 95.95 189.31 83.02 189.50 78.00 190.00 C 72.98 190.50 59.58 187.31 57.00 191.00 Z"/>
</g>
<g fill="#FEFEFE" fill-opacity="1.00" stroke="None">
<path d="
M 123.00 191.00 
C 101.00 191.00 79.00 191.00 57.00 191.00
C 53.60 195.86 58.60 206.92 57.00 213.00 C 55.40 219.08 57.70 227.29 57.00 234.00 C 56.30 240.71 57.34 249.05 57.00 256.00 C 56.66 262.95 57.16 269.92 57.00 277.00 C 56.84 284.08 57.10 290.74 57.00 298.00 C 56.90 305.26 57.11 312.54 57.00 320.00 C 56.89 327.46 57.19 333.11 57.00 341.00 C 56.81 348.89 57.39 353.07 57.00 362.00 C 56.61 370.93 57.48 372.36 58.00 383.00 C 58.52 393.64 63.05 406.62 68.08 415.92 C 73.10 425.23 79.29 431.75 87.75 438.25 C 96.22 444.75 107.67 449.21 117.93 451.07 C 128.18 452.93 127.15 453.00 137.00 453.00
C 140.33 453.00 143.67 453.00 147.00 453.00
C 175.36 454.08 202.66 438.56 217.00 414.00
C 219.33 422.34 217.34 432.83 218.00 442.00
C 240.00 442.00 262.00 442.00 284.00 442.00
C 284.00 358.00 284.00 274.00 284.00 190.00
C 262.00 190.00 240.00 190.00 218.00 190.00
C 218.00 197.20 218.00 204.84 218.00 212.00 C 218.00 219.16 218.00 225.91 218.00 233.00 C 218.00 240.09 218.01 246.91 218.00 254.00 C 217.99 261.09 218.02 267.86 218.00 275.00 C 217.98 282.14 218.04 289.83 218.00 297.00 C 217.96 304.17 218.10 310.81 218.00 318.00 C 217.90 325.19 218.22 331.65 218.00 339.00 C 217.78 346.35 218.89 351.51 216.98 358.98 C 215.06 366.44 215.38 366.85 210.92 374.92 C 206.46 382.99 196.58 390.80 188.02 394.02 C 179.47 397.25 178.83 395.64 170.22 397.22 C 161.61 398.80 160.48 397.06 151.01 395.99 C 141.54 394.92 130.68 386.77 127.31 377.69 C 123.93 368.62 123.68 369.06 123.00 361.00 C 122.32 352.94 123.33 346.56 123.00 339.00 C 122.67 331.44 123.17 325.25 123.00 318.00 C 122.83 310.75 123.13 304.12 123.00 297.00 C 122.87 289.88 123.16 283.05 123.00 276.00 C 122.84 268.95 123.30 260.92 123.00 254.00 C 122.70 247.08 123.67 239.59 123.00 233.00 C 122.33 226.41 124.49 217.99 123.00 212.00 C 121.51 206.01 126.30 195.71 123.00 191.00 Z"/>
</g>
<g fill="#FEFEFE" fill-opacity="1.00" stroke="None">
<path d="
M 1187.00 238.00 
C 1144.52 233.89 1122.40 277.91 1122.00 314.00 C 1121.60 350.09 1133.57 395.42 1176.00 400.00 C 1218.43 404.58 1240.85 360.03 1241.00 324.00 C 1241.15 287.97 1228.95 242.06 1187.00 238.00 Z"/>
</g>
<g fill="#FEFEFE" fill-opacity="1.00" stroke="None">
<path d="
M 1473.00 240.00 
C 1432.79 234.26 1410.21 278.33 1410.00 312.00 C 1409.79 345.67 1417.78 391.06 1458.00 398.00 C 1498.22 404.94 1521.33 359.67 1521.00 326.00 C 1520.67 292.33 1513.25 245.75 1473.00 240.00 Z"/>
</g>
<g fill="#FEFEFE" fill-opacity="1.00" stroke="None">
<path d="
M 0.00 630.00 
L 303.00 630.00
C 303.00 629.50 303.00 629.00 303.00 629.00
C 146.44 629.00 6.45 488.26 0.00 334.00
L 0.00 630.00 Z"/>
</g>
<g fill="#89A1BC" fill-opacity="1.00" stroke="None">
<path d="
M 992.00 453.00 
C 995.18 453.30 998.54 452.24 1001.00 452.00
C 998.14 452.00 994.11 452.99 992.00 453.00 Z"/>
</g>
<g fill="#8FA5C0" fill-opacity="1.00" stroke="None">
<path d="
M 147.00 453.00 
C 143.67 453.00 140.33 453.00 137.00 453.00
C 140.08 453.30 143.86 453.30 147.00 453.00 Z"/>
</g>
<g fill="#8BA1BE" fill-opacity="1.00" stroke="None">
<path d="
M 1485.00 453.00 
C 1482.00 453.00 1479.00 453.00 1476.00 453.00
C 1478.76 453.27 1482.18 453.27 1485.00 453.00 Z"/>
</g>
<g fill="#446996" fill-opacity="1.00" stroke="None">
<path d="
M 303.00 630.00 
L 328.00 630.00
C 328.00 630.00 328.04 629.00 328.00 629.00
C 319.67 629.00 311.33 629.00 303.00 629.00
C 303.00 629.00 303.00 629.50 303.00 630.00 Z"/>
</g>
</svg>